<svg width="40" height="40" viewBox="0 0 40 40" fill="none" xmlns="http://www.w3.org/2000/svg">
<path d="M19.957 0C8.94624 0 0 8.94624 0 19.957C0 30.9677 8.94624 39.914 19.957 39.914C30.9677 39.914 39.914 30.9677 39.914 19.957C40 8.94624 31.0538 0 19.957 0ZM29.1613 26.4086C28.8172 27.5269 26.8387 28.5591 25.9785 28.6452C25.1183 28.7312 25.1183 29.3333 20.3011 27.5269C15.5699 25.6344 12.5591 20.8172 12.3011 20.4731C12.129 20.2151 11.0968 18.9247 10.6667 17.2043C10.4946 16.6882 10.4086 16.172 10.4086 15.6559C10.4086 13.3333 11.6129 12.2151 12.043 11.7849C12.4731 11.3548 12.9892 11.1828 13.3333 11.1828C13.6774 11.1828 13.9355 11.2688 14.1935 11.2688C14.4516 11.2688 14.8817 11.0968 15.2258 12.043C15.6559 12.9892 16.6021 15.3118 16.6882 15.4839C16.7742 15.7419 16.8602 16 16.6882 16.2581C16.6021 16.5161 16.5161 16.6021 16.4301 16.7742C16.3441 16.8602 16.3441 16.9462 16.2581 17.0323C16 17.2903 15.7419 17.6344 15.5699 17.8065C15.3118 18.0645 15.0538 18.3226 15.3978 18.7527C15.6559 19.1828 16.6021 20.7312 17.9785 21.9355C19.7849 23.5699 21.2473 24 21.7634 24.2581C22.2796 24.5161 22.5376 24.4301 22.7957 24.172C23.0538 23.828 24 22.7957 24.2581 22.3656C24.6022 21.9355 24.8602 21.9355 25.2903 22.1075C25.7204 22.2796 28.043 23.3978 28.4731 23.6559C28.9032 23.914 29.2473 24 29.3333 24.172C29.5914 24.4301 29.5914 25.3763 29.1613 26.4086Z" fill="white"/>
</svg>
