<svg width="40" height="40" viewBox="0 0 40 40" fill="none" xmlns="http://www.w3.org/2000/svg">
<path d="M20.4731 9.6344C15.3978 9.6344 11.2688 13.5054 10.7526 18.3226C10.7526 18.6667 10.6666 18.9247 10.6666 19.2688C10.6666 21.4193 11.3548 23.3118 12.5591 24.9462L11.3548 28.5591L15.0537 27.3548C16.6021 28.3871 18.4086 28.9892 20.3871 28.9892C25.7204 28.9892 30.1075 24.6882 30.1075 19.3548C30.1075 19.0968 30.1075 18.8387 30.1075 18.5806C29.8494 13.5914 25.6344 9.6344 20.4731 9.6344ZM26.1505 23.3118C25.8924 24 24.7742 24.6021 24.258 24.6882C23.7419 24.7742 23.7419 25.1183 20.8172 24C17.9785 22.8817 16.086 19.957 16 19.7849C15.9139 19.6129 15.3118 18.8387 14.9677 17.8064C14.8817 17.4624 14.7957 17.2043 14.7957 16.8602C14.7957 15.4839 15.5699 14.7957 15.8279 14.5376C16.086 14.2796 16.4301 14.1935 16.6021 14.1935C16.7742 14.1935 16.9462 14.1935 17.1182 14.1935C17.2903 14.1935 17.5483 14.1075 17.7204 14.6236C17.9785 15.2258 18.4946 16.6021 18.5806 16.6882C18.6666 16.8602 18.6666 17.0322 18.5806 17.2043C18.4946 17.3763 18.4946 17.4624 18.4086 17.5484C18.4086 17.6344 18.3225 17.6344 18.3225 17.7204C18.1505 17.8925 18.0645 18.0645 17.8924 18.2366C17.7204 18.4086 17.6344 18.4946 17.8064 18.8387C17.9785 19.0968 18.5806 20.043 19.3548 20.8172C20.4731 21.7634 21.3333 22.1075 21.6774 22.1935C21.9354 22.3656 22.1075 22.2796 22.2795 22.1075C22.4516 21.9355 22.9677 21.2473 23.1397 20.9892C23.3118 20.7312 23.4838 20.7312 23.7419 20.8172C24 20.9032 25.3763 21.5914 25.7204 21.7634C25.9785 21.9355 26.1505 21.9355 26.2365 22.1075C26.4086 22.1075 26.4086 22.6236 26.1505 23.3118Z" fill="white"/>
<path d="M19.957 0C8.94624 0 0 8.94624 0 19.957C0 30.9677 8.94624 39.914 19.957 39.914C30.9677 39.914 39.914 30.9677 39.914 19.957C39.914 8.94624 31.0538 0 19.957 0ZM20.4731 30.7957C18.4086 30.7957 16.5161 30.2796 14.8817 29.3333L8.51613 31.3978L10.5806 25.2043C9.54839 23.4839 8.94624 21.4194 8.94624 19.2688C8.94624 19.0968 8.94624 18.9247 8.94624 18.7527C9.2043 12.6452 14.2796 7.74194 20.4731 7.74194C26.7527 7.74194 31.914 12.7312 32 18.9247C32 19.0108 32 19.0968 32 19.1828C32.086 25.6344 26.9247 30.7957 20.4731 30.7957Z" fill="white"/>
</svg>
