<svg width="40" height="40" viewBox="0 0 40 40" fill="none" xmlns="http://www.w3.org/2000/svg">
<path d="M30.3656 22.8817C30.0215 19.6989 27.3548 17.2043 24 17.2043C20.6452 17.2043 17.8925 19.7849 17.6344 23.0537C17.6344 23.2258 17.6344 23.3978 17.6344 23.5699C17.6344 27.0968 20.4731 29.9355 24 29.9355C25.2903 29.9355 26.4946 29.5914 27.5269 28.9032L29.9355 29.6774L29.1613 27.3548C29.9355 26.3226 30.3656 25.0322 30.3656 23.6559C30.3656 23.3118 30.3656 23.1398 30.3656 22.8817ZM21.5054 24.6021C20.9032 24.6021 20.4731 24.172 20.4731 23.5699C20.4731 23.4839 20.4731 23.4839 20.4731 23.3978C20.5591 22.8817 20.9892 22.4516 21.5054 22.4516C21.9355 22.4516 22.2796 22.7097 22.4516 23.0537C22.5376 23.2258 22.5376 23.3118 22.5376 23.4839C22.5376 24.086 22.1075 24.6021 21.5054 24.6021ZM24.172 24.6021C23.5699 24.6021 23.1398 24.172 23.1398 23.5699C23.1398 23.3978 23.1398 23.3118 23.2258 23.1398C23.3978 22.7957 23.7419 22.5376 24.172 22.5376C24.7742 22.5376 25.2043 22.9677 25.2043 23.4839V23.5699C25.2043 24.086 24.7742 24.6021 24.172 24.6021ZM26.8387 24.6021C26.2366 24.6021 25.8064 24.172 25.8064 23.5699C25.8064 23.3978 25.8064 23.3118 25.8925 23.1398C26.0645 22.7957 26.4086 22.5376 26.8387 22.5376C27.4409 22.5376 27.871 22.9677 27.871 23.4839V23.5699C27.871 24.086 27.4409 24.6021 26.8387 24.6021Z" fill="white"/>
<path d="M24 16C24.6021 16 25.2043 16.086 25.7204 16.1721C24.8602 12.6452 21.7634 9.97852 17.8925 9.97852C13.7634 9.97852 10.3226 13.1613 9.89246 17.1183C9.89246 17.3764 9.89246 17.6344 9.89246 17.8925C9.89246 19.6129 10.4946 21.2473 11.4408 22.5377L10.4086 25.4624L13.5054 24.5161C14.4516 25.1183 15.5699 25.5484 16.7742 25.7205C16.5161 24.9463 16.4301 24.1721 16.4301 23.3979C16.4301 23.3118 16.4301 23.3118 16.4301 23.2258C16.5161 19.2688 19.871 16 24 16Z" fill="white"/>
<path d="M19.957 0C8.94624 0 0 8.94624 0 19.957C0 30.9677 8.94624 39.914 19.957 39.914C30.9677 39.914 39.914 30.9677 39.914 19.957C39.914 8.94624 31.0538 0 19.957 0ZM27.6989 30.1075C26.5806 30.7097 25.3763 31.0538 24 31.0538C21.2473 31.0538 18.8387 29.5914 17.5484 27.4409C16 27.3548 14.6237 27.0108 13.3333 26.3226L8.08602 28.043L9.80645 22.9677C8.94624 21.5054 8.43011 19.871 8.43011 18.0645C8.43011 17.8925 8.43011 17.8064 8.43011 17.6344C8.68817 12.6452 12.8172 8.60215 17.9785 8.60215C22.7957 8.60215 26.8387 12.2151 27.4409 16.8602C29.8495 18.0645 31.4839 20.4731 31.6559 23.2258C31.6559 23.3118 31.6559 23.4839 31.6559 23.5699C31.6559 25.0323 31.2258 26.3226 30.5376 27.4409L31.914 31.4839L27.6989 30.1075Z" fill="white"/>
</svg>
