<svg width="40" height="40" viewBox="0 0 40 40" fill="none" xmlns="http://www.w3.org/2000/svg">
<g clip-path="url(#clip0_2001_139)">
<path d="M19.957 0C8.94624 0 0 8.94624 0 19.957C0 30.9677 8.94624 39.914 19.957 39.914C30.9677 39.914 39.914 30.9677 39.914 19.957C39.914 8.94624 31.0538 0 19.957 0ZM24.9462 12.9892C24.9462 12.9892 23.3118 12.9892 22.6237 12.9892C21.7634 12.9892 21.5914 13.3333 21.5914 14.1935C21.5914 14.8817 21.5914 16.2581 21.5914 16.2581H24.9462L24.6021 19.871H21.5914V30.7097H17.2903V19.957H15.0538V16.2581H17.2903C17.2903 16.2581 17.2903 15.7419 17.2903 13.3333C17.2903 10.6667 18.7527 9.2043 21.9355 9.2043C22.4516 9.2043 24.9462 9.2043 24.9462 9.2043V12.9892Z" fill="white"/>
</g>
<defs>
<clipPath id="clip0_2001_139">
<rect width="40" height="40" fill="white"/>
</clipPath>
</defs>
</svg>
