<svg width="40" height="40" viewBox="0 0 40 40" fill="none" xmlns="http://www.w3.org/2000/svg">
<g clip-path="url(#clip0_2001_145)">
<path d="M27.5268 14.2795C27.3548 13.8494 27.1828 13.5053 26.8387 13.1612C26.4946 12.8172 26.1505 12.6451 25.7204 12.4731C25.3763 12.301 24.8602 12.215 23.9139 12.129C22.8817 12.043 22.5376 12.043 19.9569 12.043C17.3763 12.043 17.0322 12.043 16 12.129C15.0537 12.215 14.5376 12.301 14.1935 12.4731C13.7634 12.6451 13.4193 12.8172 13.0752 13.1612C12.7311 13.5053 12.5591 13.8494 12.3871 14.2795C12.215 14.6236 12.129 15.1397 12.043 16.086C12.043 17.1182 12.043 17.3763 12.043 19.9569C12.043 22.5376 12.043 22.8817 12.129 23.9139C12.215 24.8602 12.301 25.3763 12.4731 25.7204C12.6451 26.1505 12.8172 26.4946 13.1612 26.8387C13.5053 27.1828 13.8494 27.3548 14.2795 27.5268C14.6236 27.6989 15.1397 27.7849 16.086 27.8709C17.1182 27.9569 17.3763 27.9569 20.043 27.9569C22.6236 27.9569 22.9677 27.9569 24 27.8709C24.9462 27.7849 25.4623 27.6989 25.8064 27.5268C26.2365 27.3548 26.5806 27.1828 26.9247 26.8387C27.2688 26.4946 27.4408 26.1505 27.6129 25.7204C27.7849 25.3763 27.8709 24.8602 27.9569 23.9139C28.043 22.8817 28.043 22.6236 28.043 19.9569C28.043 17.3763 28.043 17.0322 27.9569 16C27.8709 15.1397 27.6989 14.6236 27.5268 14.2795ZM19.9569 24.9462C17.2043 24.9462 14.9677 22.7096 14.9677 19.9569C14.9677 17.2043 17.2043 14.9677 19.9569 14.9677C22.7096 14.9677 24.9462 17.2043 24.9462 19.9569C24.9462 22.7096 22.7096 24.9462 19.9569 24.9462ZM25.2043 16C24.6021 16 24 15.4838 24 14.7957C24 14.1935 24.5161 13.5914 25.2043 13.5914C25.8064 13.5914 26.4086 14.1075 26.4086 14.7957C26.3225 15.4838 25.8064 16 25.2043 16Z" fill="white"/>
<path d="M19.9571 16.7742C18.1506 16.7742 16.6882 18.2365 16.6882 20.043C16.6882 21.8494 18.1506 23.3118 19.9571 23.3118C21.7635 23.3118 23.2259 21.8494 23.2259 20.043C23.2259 18.2365 21.7635 16.7742 19.9571 16.7742Z" fill="white"/>
<path d="M19.957 0C8.94624 0 0 8.94624 0 19.957C0 30.9677 8.94624 39.914 19.957 39.914C30.9677 39.914 39.914 30.9677 39.914 19.957C40 8.94624 31.0538 0 19.957 0ZM29.6774 24C29.5914 25.0323 29.5054 25.7204 29.2473 26.3226C28.9892 26.9247 28.6452 27.5269 28.129 28.043C27.6129 28.5591 27.0108 28.9032 26.4086 29.1613C25.8065 29.4194 25.1183 29.5914 24.086 29.5914C23.0538 29.6774 22.7097 29.6774 20.043 29.6774C17.3763 29.6774 17.0323 29.6774 16 29.5914C14.9677 29.5054 14.2796 29.4194 13.6774 29.1613C13.0753 28.9032 12.4731 28.5591 11.957 28.043C11.4409 27.5269 11.0968 26.9247 10.8387 26.3226C10.5806 25.7204 10.4086 25.0323 10.4086 24C10.3226 22.9677 10.3226 22.6237 10.3226 19.957C10.3226 17.2903 10.3226 16.9462 10.4086 15.914C10.4946 14.8817 10.5806 14.1935 10.8387 13.5914C11.0968 12.9892 11.4409 12.3871 11.957 11.871C12.4731 11.3548 13.0753 11.0108 13.6774 10.7527C14.2796 10.4946 14.9677 10.3226 16 10.3226C17.0323 10.2366 17.3763 10.2366 20.043 10.2366C22.7097 10.2366 23.0538 10.2366 24.086 10.3226C25.1183 10.4086 25.8065 10.4946 26.4086 10.7527C27.0108 11.0108 27.6129 11.3548 28.129 11.871C28.6452 12.3871 28.9892 12.9892 29.2473 13.5914C29.5054 14.1935 29.6774 14.8817 29.6774 15.914C29.7634 16.9462 29.7634 17.2903 29.7634 19.957C29.6774 22.6237 29.6774 22.9677 29.6774 24Z" fill="white"/>
</g>
<defs>
<clipPath id="clip0_2001_145">
<rect width="40" height="40" fill="white"/>
</clipPath>
</defs>
</svg>
