<svg width="19" height="24" viewBox="0 0 19 24" fill="none" xmlns="http://www.w3.org/2000/svg">
<path d="M9.00521 22.9511V22.951L8.99492 22.9512C8.83211 22.9545 8.56249 22.8779 8.17999 22.6477C7.80904 22.4244 7.38194 22.0874 6.91857 21.6499C5.99299 20.776 4.96559 19.5424 4.00592 18.1415C3.04709 16.7418 2.16596 15.1897 1.52628 13.6848C0.883323 12.1722 0.5 10.7436 0.5 9.57998C0.5 4.81446 4.3356 0.998901 9.00521 0.998901C13.673 0.998901 17.5104 4.86256 17.5104 9.57998C17.5104 10.7387 17.1084 12.1612 16.4386 13.6706C15.7725 15.1716 14.8592 16.7197 13.8778 18.1181C12.896 19.5172 11.8556 20.7527 10.9422 21.6322C10.4847 22.0728 10.0691 22.4142 9.71711 22.642C9.34697 22.8816 9.11415 22.9511 9.00521 22.9511Z" stroke="white" stroke-miterlimit="10" stroke-linecap="round" stroke-linejoin="round"/>
<path d="M11.4245 10.2287C11.4245 11.5823 10.3374 12.6725 9.00521 12.6725C7.67303 12.6725 6.58594 11.5823 6.58594 10.2287C6.58594 8.87498 7.67303 7.78479 9.00521 7.78479C10.3374 7.78479 11.4245 8.87498 11.4245 10.2287Z" stroke="white" stroke-miterlimit="10" stroke-linecap="round" stroke-linejoin="round"/>
</svg>
