<svg width="224" height="42" viewBox="0 0 224 42" fill="none" xmlns="http://www.w3.org/2000/svg">
<g clip-path="url(#clip0_2001_78)">
<path d="M19.6769 22.4984H7.67476L4.55649 29.1589H0L13.8668 0L27.2308 29.1589H22.617L19.6769 22.4984ZM17.9523 18.6044L13.7968 9.25857L9.43754 18.6044H17.9523Z" fill="white"/>
<path d="M47.525 5.8131L44.0949 7.80064C43.6707 6.9546 43.0415 6.22304 42.2621 5.6698C41.553 5.26534 40.7402 5.06857 39.9202 5.10282C38.8558 5.06526 37.8143 5.41107 36.9929 6.07479C36.6246 6.36488 36.3289 6.73344 36.1282 7.15237C35.9275 7.5713 35.8271 8.02956 35.8346 8.49223C35.8346 9.82972 36.8507 10.9076 38.8829 11.7259L41.6766 12.8474C43.6011 13.5121 45.3205 14.6465 46.6722 16.1433C47.744 17.5088 48.3015 19.1946 48.2505 20.9159C48.2875 22.0701 48.0805 23.2193 47.6425 24.2915C47.2044 25.3637 46.5448 26.3357 45.7049 27.1464C44.8567 27.9648 43.8486 28.6072 42.7409 29.0354C41.6333 29.4636 40.4488 29.6688 39.2584 29.6386C37.0472 29.7171 34.8898 28.9609 33.2318 27.5265C31.5798 25.9344 30.5468 23.8279 30.3109 21.5701L34.5937 20.648C34.791 22.2617 35.1283 23.3707 35.6119 23.9876C36.0293 24.4989 36.5506 24.9198 37.1428 25.2236C37.735 25.5275 38.3852 25.7076 39.0522 25.7527C39.7191 25.7978 40.3884 25.7069 41.0176 25.4856C41.6469 25.2643 42.2223 24.9176 42.7076 24.4673C43.1361 24.0329 43.4704 23.518 43.6902 22.9537C43.9101 22.3894 44.0109 21.7873 43.9867 21.1838C43.9922 20.6848 43.9149 20.1882 43.7576 19.7134C43.6059 19.2575 43.3661 18.8345 43.0512 18.4673C42.6802 18.0589 42.2517 17.7043 41.7785 17.4144C41.2021 17.0547 40.5953 16.7441 39.9648 16.486L37.2601 15.3832C33.4418 13.7965 31.5327 11.4746 31.5327 8.41746C31.5156 7.43398 31.7233 6.45919 32.1406 5.56443C32.5579 4.66968 33.1743 3.87758 33.9446 3.24613C35.604 1.82786 37.7504 1.07763 39.952 1.14644C43.1849 1.17551 45.7092 2.73107 47.525 5.8131Z" fill="white"/>
<path d="M58.5089 12.6729L69.4165 1.72583H75.093L62.3654 14.1433L75.093 29.1589H69.4356L59.3808 16.9532L58.5089 17.8068V29.1589H54.277V1.74452H58.5089V12.6729Z" fill="white"/>
<path d="M91.3144 13.8006H105.773C105.773 15.2586 105.711 16.5815 105.588 17.7695C105.475 18.8992 105.225 20.0118 104.844 21.0841C104.354 22.4557 103.638 23.7395 102.725 24.8847C101.846 25.9759 100.783 26.9116 99.581 27.6511C98.3529 28.4018 97.0194 28.9727 95.6227 29.3458C94.1437 29.7376 92.6175 29.9325 91.0853 29.9252C89.0471 29.9515 87.0228 29.594 85.1224 28.8723C83.3876 28.2071 81.8124 27.1973 80.4959 25.9065C79.181 24.597 78.1563 23.0359 77.4858 21.3209C76.7465 19.4325 76.3794 17.4241 76.404 15.4019C76.3818 13.3957 76.7422 11.4032 77.4667 9.52647C78.1288 7.82012 79.155 6.27165 80.4768 4.98442C81.8204 3.69545 83.4215 2.69214 85.1797 2.03738C87.1384 1.30983 89.2197 0.95049 91.3144 0.978186C94.0024 0.92741 96.6564 1.57218 99.0083 2.84734C101.312 4.19639 103.14 6.20306 104.246 8.59812L97.3664 11.3645C96.8755 10.0488 95.9878 8.91017 94.8209 8.09968C93.7745 7.44003 92.5525 7.09757 91.308 7.11526C90.2809 7.10905 89.2647 7.32165 88.3298 7.73831C87.447 8.13217 86.6661 8.71567 86.0452 9.44548C85.3842 10.2409 84.8794 11.1493 84.556 12.1246C84.1862 13.2517 84.0057 14.43 84.0215 15.6137C84.0102 16.7103 84.1668 17.8024 84.486 18.8536C84.7734 19.8046 85.2587 20.6871 85.9115 21.4455C86.5357 22.1767 87.3242 22.7567 88.2152 23.1402C89.2195 23.5641 90.3036 23.7764 91.3971 23.7632C92.0979 23.7643 92.7963 23.6848 93.4781 23.5265C94.1232 23.3809 94.7357 23.1212 95.2854 22.7601C95.8205 22.4043 96.27 21.9387 96.6027 21.3956C96.9761 20.7554 97.2121 20.0473 97.2964 19.3146H91.3144V13.8006Z" fill="white"/>
<path d="M126.697 8.72276C125.986 8.13877 125.185 7.66783 124.324 7.32712C123.59 7.03477 122.806 6.88046 122.013 6.87229C121.197 6.8283 120.388 7.04711 119.71 7.49534C119.43 7.68648 119.202 7.9422 119.046 8.23992C118.891 8.53764 118.813 8.86822 118.819 9.20251C118.802 9.64482 118.962 10.0762 119.264 10.405C119.597 10.7484 119.995 11.0255 120.435 11.2212C120.961 11.4756 121.508 11.6841 122.071 11.8443C122.707 12.0125 123.28 12.1932 123.872 12.3863C126.252 13.1672 127.993 14.2056 129.096 15.5016C130.249 16.9466 130.836 18.7477 130.751 20.5795C130.77 21.8871 130.524 23.1853 130.026 24.3988C129.556 25.5202 128.831 26.5218 127.906 27.3271C126.908 28.1705 125.746 28.8065 124.489 29.1963C123.007 29.6776 121.455 29.9176 119.894 29.9066C116.359 29.9021 112.913 28.8126 110.043 26.7913L113.168 21.0405C114.126 21.9036 115.217 22.6142 116.401 23.1464C117.4 23.5941 118.484 23.8298 119.583 23.838C120.541 23.9135 121.492 23.6283 122.243 23.0405C122.65 22.6883 122.932 22.2176 123.046 21.6974C123.161 21.1772 123.102 20.6348 122.879 20.1495C122.702 19.8159 122.447 19.5278 122.134 19.3084C121.715 19.0163 121.26 18.7776 120.779 18.5981C120.219 18.3801 119.544 18.1371 118.749 17.8692C117.807 17.5826 116.884 17.2461 115.981 16.9097C115.104 16.5706 114.288 16.0974 113.562 15.5078C112.838 14.9012 112.257 14.1489 111.857 13.3022C111.393 12.2408 111.175 11.0915 111.22 9.93771C111.202 8.67413 111.436 7.41921 111.908 6.24301C112.335 5.17788 112.985 4.21218 113.817 3.40811C114.69 2.59267 115.729 1.96641 116.865 1.57011C118.165 1.12729 119.536 0.918321 120.913 0.953287C122.382 0.965847 123.844 1.15629 125.265 1.52026C126.778 1.89669 128.238 2.45329 129.612 3.17759L126.697 8.72276Z" fill="white"/>
<path d="M143.542 13.0405L152.452 1.7196H161.444L150.307 14.7103L162.462 29.1589H153.018L143.542 17.2585V29.1589H136.256V1.74453H143.542V13.0405Z" fill="white"/>
<path d="M178.276 14.8723H189.852V15.7819C189.88 17.6309 189.631 19.474 189.114 21.2523C188.594 22.7781 187.757 24.1823 186.657 25.3769C185.43 26.7682 183.904 27.8754 182.187 28.6189C180.47 29.3623 178.606 29.7234 176.73 29.676C174.85 29.7031 172.986 29.3503 171.252 28.6395C169.519 27.9287 167.954 26.8753 166.656 25.5452C165.302 24.2377 164.232 22.6755 163.512 20.9526C162.791 19.2297 162.434 17.3818 162.462 15.5202C162.423 13.6311 162.782 11.7544 163.517 10.0071C164.252 8.2598 165.346 6.67942 166.732 5.36449C168.863 3.29235 171.589 1.90688 174.546 1.39356C177.503 0.880237 180.55 1.26356 183.278 2.49221C185.332 3.55755 187.153 5.00765 188.636 6.76013L185.62 9.58256C183.32 6.58359 180.52 5.08619 177.22 5.09034C175.825 5.05427 174.438 5.30326 173.147 5.82141C171.857 6.33956 170.69 7.1155 169.723 8.09969C168.736 9.06762 167.961 10.223 167.447 11.4948C166.932 12.7667 166.689 14.1281 166.732 15.4953C166.689 16.9178 166.967 18.332 167.544 19.6379C168.121 20.9439 168.985 22.1097 170.073 23.053C171.9 24.7852 174.333 25.7701 176.876 25.8069C178.94 25.8129 180.936 25.0819 182.489 23.7508C183.265 23.1408 183.91 22.3861 184.386 21.5306C184.862 20.675 185.16 19.7355 185.263 18.7664H178.263L178.276 14.8723Z" fill="white"/>
<path d="M194.733 15.3209C194.71 13.4559 195.083 11.6066 195.829 9.8904C196.575 8.17424 197.678 6.62873 199.067 5.35203C200.422 4.009 202.04 2.94844 203.825 2.23423C205.61 1.52001 207.524 1.16694 209.452 1.19627C211.366 1.17067 213.265 1.52957 215.032 2.25078C216.798 2.97199 218.395 4.0402 219.724 5.38941C221.106 6.69354 222.199 8.26197 222.936 9.99726C223.672 11.7326 224.037 13.5976 224.006 15.4766C224.042 17.3576 223.676 19.225 222.93 20.959C222.185 22.6929 221.078 24.2551 219.679 25.5452C216.996 28.1156 213.416 29.5929 209.663 29.6785C205.91 29.7641 202.264 28.4516 199.461 26.0062C196.309 23.2731 194.733 19.7113 194.733 15.3209ZM198.997 15.3707C198.952 16.7614 199.206 18.1457 199.743 19.4338C200.281 20.7219 201.089 21.8849 202.115 22.8474C203.08 23.7849 204.223 24.5271 205.481 25.0317C206.739 25.5363 208.086 25.7933 209.445 25.7881C210.804 25.7829 212.149 25.5156 213.403 25.0014C214.657 24.4872 215.794 23.7362 216.752 22.7913C217.738 21.8299 218.516 20.6829 219.038 19.4194C219.559 18.1558 219.814 16.8019 219.787 15.4393C219.814 14.0774 219.558 12.7245 219.033 11.4628C218.509 10.201 217.729 9.05678 216.739 8.09969C215.791 7.12577 214.646 6.3562 213.377 5.84016C212.108 5.32413 210.743 5.07299 209.37 5.10281C207.994 5.07648 206.627 5.32912 205.355 5.84487C204.084 6.36062 202.935 7.12831 201.981 8.09969C201 9.0469 200.227 10.1805 199.709 11.4308C199.191 12.6812 198.94 14.0219 198.971 15.3707H198.997Z" fill="white"/>
<path d="M52.0815 40.2368C51.9772 40.2374 51.8751 40.2069 51.7888 40.1495C51.6899 40.0805 51.6163 39.9822 51.5788 39.8692L50.1024 35.9377C50.0659 35.8445 50.0528 35.744 50.0642 35.6449C50.071 35.6059 50.0858 35.5687 50.1077 35.5355C50.1295 35.5023 50.158 35.4738 50.1915 35.4517C50.265 35.4043 50.3517 35.3804 50.4397 35.3832C50.5255 35.3813 50.6099 35.4052 50.6815 35.4517C50.7578 35.5171 50.8112 35.6042 50.8342 35.7009L52.2215 39.5888H51.9861L53.4116 35.7009C53.4438 35.6054 53.5034 35.5211 53.5834 35.4579C53.6644 35.4056 53.7601 35.3795 53.857 35.3832C53.9531 35.3784 54.0478 35.4071 54.1243 35.4642C54.2065 35.5226 54.2668 35.6057 54.2961 35.7009L55.6898 39.5888H55.4671L56.8735 35.6822C56.9044 35.5895 56.9618 35.5073 57.0389 35.4455C57.1114 35.4015 57.1956 35.3798 57.2808 35.3832C57.3245 35.3803 57.3685 35.386 57.41 35.3999C57.4515 35.4138 57.4898 35.4356 57.5226 35.4642C57.5511 35.4896 57.5743 35.5203 57.5906 35.5545C57.607 35.5887 57.6163 35.6258 57.618 35.6635C57.6224 35.7575 57.605 35.8512 57.5671 35.9377L56.0907 39.8754C56.05 39.9834 55.9795 40.0783 55.8871 40.1495C55.798 40.2116 55.691 40.2443 55.5816 40.243C55.4762 40.2443 55.3732 40.2115 55.2889 40.1495C55.1964 40.0783 55.1259 39.9834 55.0852 39.8754L53.6216 35.9315H54.0479L52.5906 39.8754C52.5517 39.9827 52.4835 40.0775 52.3933 40.1495C52.3017 40.2107 52.1923 40.2413 52.0815 40.2368Z" fill="white"/>
<path d="M62.8809 40.2555C62.4229 40.2674 61.9694 40.1645 61.5636 39.9564C61.2025 39.7651 60.9062 39.475 60.7108 39.1215C60.5028 38.7183 60.4001 38.2709 60.4117 37.8193C60.3984 37.3736 60.5013 36.9318 60.7108 36.5358C60.8996 36.1738 61.1893 35.8717 61.5464 35.6643C61.9034 35.457 62.3132 35.353 62.7282 35.3645C63.0272 35.3575 63.3244 35.4127 63.6 35.5265C63.8461 35.6292 64.0641 35.7871 64.2364 35.9876C64.4241 36.1987 64.5669 36.4444 64.6564 36.7103C64.7546 37.023 64.8018 37.3489 64.7964 37.676C64.7991 37.7175 64.7925 37.759 64.7771 37.7978C64.7617 37.8365 64.7379 37.8715 64.7073 37.9003C64.6343 37.9543 64.544 37.9808 64.4528 37.9751H61.029V37.458H64.2746L64.1155 37.5888C64.125 37.2843 64.0708 36.9811 63.9564 36.6978C63.8632 36.471 63.7038 36.2759 63.4982 36.1371C63.2694 36.0042 63.0069 35.9372 62.7409 35.9439C62.4376 35.9366 62.1389 36.0168 61.8818 36.1745C61.6448 36.3261 61.4589 36.5429 61.3472 36.7975C61.2242 37.0963 61.1636 37.4162 61.169 37.7383V37.7944C61.1363 38.2861 61.2956 38.7715 61.6145 39.1527C61.7795 39.316 61.9788 39.4424 62.1985 39.5231C62.4182 39.6037 62.6532 39.6368 62.8873 39.62C63.1022 39.616 63.3159 39.5867 63.5236 39.5327C63.7499 39.4678 63.9646 39.369 64.16 39.2399C64.2338 39.1868 64.323 39.1584 64.4146 39.1589C64.4475 39.1578 64.4803 39.1634 64.5109 39.1752C64.5415 39.1869 64.5694 39.2047 64.5928 39.2274C64.643 39.2661 64.677 39.3216 64.6882 39.3832C64.7126 39.4475 64.7126 39.5183 64.6882 39.5826C64.6527 39.6596 64.5923 39.723 64.5164 39.7633C64.2808 39.9266 64.0181 40.0488 63.74 40.1246C63.4609 40.2056 63.172 40.2496 62.8809 40.2555Z" fill="white"/>
<path d="M69.4738 40.2555C69.2701 40.2682 69.0661 40.2363 68.8768 40.1619C68.6874 40.0875 68.5174 39.9726 68.3792 39.8255C68.1017 39.4696 67.968 39.0259 68.0037 38.5794V33.6449C67.9994 33.5909 68.0062 33.5366 68.0237 33.4852C68.0412 33.4339 68.069 33.3864 68.1056 33.3458C68.1445 33.3101 68.1907 33.2827 68.2411 33.2656C68.2915 33.2484 68.3451 33.2418 68.3983 33.2461C68.4524 33.2424 68.5068 33.2493 68.5581 33.2664C68.6095 33.2835 68.6568 33.3105 68.6974 33.3458C68.7364 33.3851 68.7662 33.4321 68.7849 33.4837C68.8036 33.5354 68.8106 33.5903 68.8056 33.6449V38.5358C68.7823 38.8122 68.8589 39.0879 69.0219 39.3146C69.0989 39.4049 69.1969 39.4758 69.3076 39.5213C69.4183 39.5668 69.5386 39.5857 69.6583 39.5763H69.8174H69.9574C69.9851 39.5712 70.0137 39.5731 70.0404 39.5818C70.0671 39.5906 70.0911 39.6058 70.1102 39.6262C70.1456 39.7 70.1609 39.7816 70.1547 39.8629C70.1585 39.9568 70.1293 40.0492 70.072 40.1246C70.0021 40.1885 69.9126 40.2279 69.8174 40.2368H69.6456L69.4738 40.2555Z" fill="white"/>
<path d="M74.4567 40.2555C74.253 40.2682 74.049 40.2363 73.8597 40.1619C73.6703 40.0875 73.5003 39.9726 73.3621 39.8255C73.0846 39.4696 72.9509 39.0259 72.9866 38.5794V33.6449C72.9823 33.5909 72.9891 33.5366 73.0066 33.4852C73.0241 33.4339 73.0519 33.3864 73.0885 33.3458C73.1274 33.3101 73.1736 33.2827 73.224 33.2656C73.2745 33.2484 73.328 33.2418 73.3812 33.2461C73.4353 33.2424 73.4897 33.2493 73.541 33.2664C73.5924 33.2835 73.6397 33.3105 73.6803 33.3458C73.718 33.3859 73.747 33.4331 73.7656 33.4845C73.7841 33.5359 73.7919 33.5904 73.7885 33.6449V38.5358C73.7652 38.8122 73.8418 39.0879 74.0049 39.3146C74.0818 39.4049 74.1798 39.4758 74.2905 39.5213C74.4012 39.5668 74.5215 39.5857 74.6412 39.5763H74.8003H74.934C74.9616 39.5699 74.9906 39.5711 75.0176 39.5799C75.0446 39.5887 75.0685 39.6048 75.0867 39.6262C75.1155 39.7065 75.1178 39.7937 75.0931 39.8754C75.0968 39.9693 75.0677 40.0617 75.0103 40.1371C74.9405 40.201 74.851 40.2404 74.7558 40.2492H74.584L74.4567 40.2555Z" fill="white"/>
<path d="M78.3131 40.2368C78.2594 40.2407 78.2055 40.2333 78.155 40.215C78.1045 40.1967 78.0586 40.168 78.0204 40.1308C77.9474 40.0458 77.9109 39.9364 77.9186 39.8255V35.7819C77.9142 35.728 77.921 35.6737 77.9385 35.6223C77.956 35.5709 77.9838 35.5235 78.0204 35.4829C78.0581 35.4473 78.1032 35.42 78.1526 35.4028C78.202 35.3856 78.2545 35.3789 78.3067 35.3832C78.3599 35.3799 78.4131 35.3871 78.4634 35.4042C78.5136 35.4213 78.5599 35.4481 78.5995 35.4829C78.636 35.5235 78.6638 35.5709 78.6813 35.6223C78.6988 35.6737 78.7056 35.728 78.7013 35.7819V36.6168L78.5931 36.4984C78.7132 36.1474 78.9538 35.848 79.274 35.6511C79.5991 35.4558 79.9746 35.3563 80.3559 35.3645C80.6867 35.353 81.0151 35.4237 81.3105 35.5701C81.5691 35.7068 81.7715 35.9269 81.8832 36.1931C82.021 36.5229 82.086 36.8775 82.0741 37.2336V39.8318C82.08 39.9434 82.0412 40.053 81.9659 40.1371C81.9271 40.1733 81.8811 40.2014 81.8307 40.2196C81.7804 40.2378 81.7268 40.2458 81.6732 40.243C81.6186 40.2459 81.564 40.238 81.5127 40.2198C81.4613 40.2016 81.4142 40.1735 81.3741 40.1371C81.2989 40.053 81.2601 39.9434 81.2659 39.8318V37.2773C81.2978 36.9353 81.2054 36.5933 81.005 36.3115C80.8987 36.2022 80.7685 36.1179 80.6241 36.065C80.4796 36.0121 80.3248 35.992 80.1713 36.0062C79.9765 35.9962 79.7817 36.0266 79.5997 36.0953C79.4177 36.164 79.2525 36.2695 79.115 36.405C78.8432 36.6992 78.7013 37.0867 78.7204 37.4829V39.8255C78.7204 40.0997 78.5868 40.2368 78.3131 40.2368Z" fill="white"/>
<path d="M87.7443 40.2554C87.2864 40.2674 86.8329 40.1644 86.427 39.9564C86.066 39.7651 85.7696 39.475 85.5743 39.1215C85.3663 38.7183 85.2635 38.2709 85.2752 37.8193C85.2629 37.3744 85.3634 36.9334 85.5679 36.5358C85.7583 36.1738 86.0493 35.8718 86.4073 35.6646C86.7653 35.4573 87.1759 35.3533 87.5916 35.3645C87.8876 35.3544 88.1825 35.4053 88.4571 35.514C88.7024 35.6181 88.9201 35.7758 89.0935 35.9751C89.2792 36.1866 89.4198 36.4323 89.5071 36.6978C89.6074 37.0102 89.6568 37.3361 89.6535 37.6635C89.6561 37.705 89.6495 37.7466 89.6342 37.7853C89.6188 37.824 89.595 37.859 89.5644 37.8878C89.4895 37.9427 89.3968 37.9693 89.3035 37.9626H85.9116V37.4455H89.1762L89.0171 37.5763C89.0266 37.2718 88.9725 36.9686 88.858 36.6853C88.7648 36.4585 88.6054 36.2634 88.3998 36.1246C88.169 35.9909 87.9042 35.9239 87.6362 35.9315C87.3348 35.9231 87.0377 36.0034 86.7834 36.162C86.5465 36.3136 86.3605 36.5304 86.2488 36.785C86.1259 37.0838 86.0653 37.4037 86.0707 37.7258V37.7819C86.0347 38.274 86.1943 38.7606 86.5161 39.1402C86.6806 39.3042 86.8798 39.4311 87.0997 39.5118C87.3195 39.5925 87.5548 39.6252 87.7889 39.6075C88.0145 39.6061 88.239 39.5767 88.4571 39.5202C88.6833 39.4553 88.898 39.3565 89.0935 39.2274C89.1672 39.1744 89.2565 39.146 89.348 39.1464C89.3809 39.1457 89.4136 39.1514 89.4441 39.1632C89.4747 39.1749 89.5026 39.1925 89.5262 39.2149C89.5764 39.2537 89.6104 39.3091 89.6217 39.3707C89.646 39.435 89.646 39.5058 89.6217 39.5701C89.5843 39.6459 89.5244 39.7089 89.4498 39.7508C89.2135 39.9128 88.951 40.035 88.6735 40.1121C88.3725 40.2036 88.0595 40.2519 87.7443 40.2554Z" fill="white"/>
<path d="M94.49 40.2555C94.1898 40.2537 93.8909 40.2181 93.599 40.1495C93.2982 40.0789 93.0134 39.9543 92.759 39.7819C92.6971 39.7426 92.6484 39.6863 92.619 39.62C92.6036 39.5586 92.6036 39.4944 92.619 39.433C92.6308 39.3744 92.6595 39.3204 92.7017 39.2773C92.7416 39.2295 92.7984 39.1983 92.8608 39.19C92.9336 39.1853 93.0063 39.2004 93.0708 39.2337C93.3036 39.3786 93.5565 39.4899 93.8218 39.5639C94.0572 39.6204 94.2985 39.6497 94.5409 39.6511C94.8393 39.6719 95.137 39.6023 95.3936 39.4517C95.4846 39.3898 95.5584 39.3067 95.6084 39.2099C95.6584 39.1131 95.683 39.0056 95.68 38.8972C95.6836 38.8161 95.6682 38.7352 95.6351 38.6607C95.6021 38.5863 95.5521 38.5201 95.4891 38.4673C95.3169 38.3359 95.1131 38.2501 94.8973 38.2181L93.9681 38.0062C93.6211 37.9543 93.2977 37.8025 93.039 37.5701C92.8362 37.3481 92.729 37.0578 92.7399 36.7601C92.7325 36.4933 92.8128 36.2312 92.969 36.0125C93.1322 35.7955 93.352 35.6255 93.6054 35.5203C93.9211 35.3979 94.2587 35.3385 94.5982 35.3458C94.878 35.3446 95.1565 35.3824 95.4255 35.458C95.6821 35.5306 95.922 35.6512 96.1318 35.8131C96.1933 35.8485 96.2404 35.9035 96.2655 35.9689C96.2846 36.0298 96.2846 36.0949 96.2655 36.1558C96.2477 36.2148 96.2149 36.2684 96.17 36.3115C96.1255 36.3547 96.067 36.3811 96.0046 36.3863C95.929 36.3923 95.854 36.3701 95.7946 36.324C95.5986 36.1972 95.384 36.1005 95.1582 36.0374C94.9626 35.9765 94.7588 35.945 94.5536 35.9439C94.2548 35.9249 93.9577 36.0014 93.7072 36.162C93.6166 36.2257 93.5432 36.31 93.4933 36.4077C93.4434 36.5054 93.4185 36.6136 93.4209 36.7228C93.4187 36.8054 93.4333 36.8876 93.4639 36.9646C93.4945 37.0416 93.5404 37.1119 93.599 37.1714C93.755 37.3053 93.9474 37.3918 94.1527 37.4206L95.0564 37.6075C95.4122 37.6636 95.7462 37.8121 96.0237 38.0374C96.1328 38.1413 96.2181 38.2666 96.274 38.4052C96.33 38.5437 96.3553 38.6923 96.3482 38.8411C96.3534 39.0401 96.3078 39.2371 96.2156 39.4145C96.1233 39.5918 95.9874 39.7438 95.82 39.8567C95.4298 40.1218 94.9649 40.2611 94.49 40.2555Z" fill="white"/>
<path d="M101.286 40.2555C100.984 40.254 100.683 40.2185 100.389 40.1495C100.088 40.0789 99.8035 39.9543 99.5492 39.7819C99.489 39.7407 99.4408 39.6849 99.4092 39.62C99.3938 39.5586 99.3938 39.4944 99.4092 39.433C99.4209 39.3744 99.4496 39.3204 99.4919 39.2773C99.5317 39.2295 99.5886 39.1983 99.651 39.19C99.7238 39.1853 99.7965 39.2004 99.861 39.2337C100.094 39.3786 100.347 39.4899 100.612 39.5639C100.847 39.6204 101.089 39.6497 101.331 39.6511C101.629 39.6719 101.927 39.6023 102.184 39.4517C102.275 39.3898 102.349 39.3067 102.399 39.2099C102.449 39.1131 102.473 39.0056 102.47 38.8972C102.474 38.8161 102.458 38.7352 102.425 38.6607C102.392 38.5863 102.342 38.5201 102.279 38.4673C102.107 38.3359 101.903 38.2501 101.687 38.2181L100.758 38.0062C100.412 37.9529 100.089 37.8013 99.8292 37.5701C99.6263 37.3481 99.5191 37.0578 99.5301 36.7601C99.5227 36.4933 99.603 36.2312 99.7592 36.0125C99.9223 35.7955 100.142 35.6255 100.396 35.5203C100.711 35.3979 101.049 35.3385 101.388 35.3458C101.668 35.3446 101.947 35.3824 102.216 35.458C102.472 35.5306 102.712 35.6512 102.922 35.8131C102.983 35.8485 103.031 35.9035 103.056 35.9689C103.075 36.0298 103.075 36.0949 103.056 36.1558C103.038 36.2148 103.005 36.2684 102.96 36.3115C102.916 36.3547 102.857 36.3811 102.795 36.3863C102.719 36.3923 102.644 36.3701 102.585 36.324C102.399 36.2 102.195 36.1034 101.98 36.0374C101.785 35.9765 101.581 35.945 101.376 35.9439C101.077 35.9249 100.78 36.0014 100.529 36.162C100.439 36.2257 100.365 36.31 100.315 36.4077C100.265 36.5054 100.24 36.6136 100.243 36.7228C100.241 36.8054 100.255 36.8876 100.286 36.9646C100.316 37.0416 100.362 37.1119 100.421 37.1714C100.577 37.3053 100.769 37.3918 100.975 37.4206L101.878 37.6075C102.234 37.6636 102.568 37.8121 102.846 38.0374C102.955 38.1413 103.04 38.2666 103.096 38.4052C103.152 38.5437 103.177 38.6923 103.17 38.8411C103.175 39.0401 103.13 39.2371 103.038 39.4145C102.945 39.5918 102.809 39.7438 102.642 39.8567C102.245 40.1272 101.77 40.2668 101.286 40.2555Z" fill="white"/>
<path d="M112.64 40.2555C112.352 40.2653 112.068 40.1963 111.819 40.0561C111.593 39.9216 111.418 39.718 111.322 39.4767C111.205 39.1767 111.148 38.857 111.157 38.5358V36.0436H110.584C110.543 36.0474 110.502 36.0421 110.463 36.028C110.425 36.014 110.39 35.9917 110.361 35.9626C110.332 35.9319 110.31 35.8955 110.295 35.8558C110.281 35.8162 110.275 35.774 110.279 35.7321C110.276 35.6912 110.282 35.6501 110.296 35.6115C110.31 35.5729 110.333 35.5376 110.361 35.5078C110.391 35.4809 110.426 35.4604 110.465 35.4475C110.503 35.4347 110.544 35.4297 110.584 35.433H111.157V34.3365C111.149 34.2286 111.183 34.1218 111.252 34.0374C111.286 34.0035 111.327 33.977 111.372 33.9598C111.417 33.9426 111.465 33.9351 111.513 33.9377C111.56 33.9351 111.608 33.9427 111.652 33.96C111.696 33.9772 111.735 34.0036 111.768 34.0374C111.832 34.124 111.863 34.2297 111.857 34.3365V35.4517H112.939C112.979 35.4491 113.019 35.4544 113.058 35.4673C113.096 35.4801 113.131 35.5002 113.161 35.5265C113.217 35.5886 113.246 35.6686 113.244 35.7508C113.247 35.8351 113.217 35.9173 113.161 35.9813C113.132 36.0096 113.097 36.0315 113.059 36.0455C113.021 36.0595 112.98 36.0652 112.939 36.0623H111.857V38.4611C111.839 38.755 111.909 39.0476 112.06 39.3022C112.14 39.4004 112.244 39.4779 112.361 39.5279C112.479 39.5779 112.607 39.5988 112.735 39.5888C112.83 39.589 112.925 39.5743 113.015 39.5452C113.076 39.5232 113.141 39.5106 113.206 39.5078C113.23 39.504 113.255 39.5073 113.278 39.5172C113.301 39.5272 113.32 39.5434 113.333 39.5639C113.375 39.6356 113.393 39.7184 113.384 39.8006C113.385 39.873 113.372 39.9448 113.346 40.0125C113.334 40.0431 113.317 40.0711 113.294 40.0947C113.271 40.1183 113.243 40.1369 113.212 40.1496C113.125 40.1803 113.036 40.2053 112.945 40.2243C112.844 40.2427 112.742 40.2531 112.64 40.2555Z" fill="white"/>
<path d="M116.051 40.2368C116.001 40.2391 115.951 40.2309 115.905 40.2126C115.859 40.1943 115.817 40.1664 115.783 40.1308C115.72 40.0415 115.689 39.9341 115.694 39.8255V35.7819C115.688 35.6751 115.719 35.5694 115.783 35.4829C115.814 35.4485 115.852 35.4216 115.895 35.4042C115.938 35.3869 115.985 35.3797 116.032 35.3832C116.079 35.3806 116.126 35.3882 116.17 35.4054C116.214 35.4226 116.254 35.4491 116.286 35.4829C116.35 35.5694 116.382 35.6751 116.375 35.7819V36.567H116.286C116.358 36.2232 116.544 35.9122 116.814 35.6822C117.086 35.4717 117.422 35.3555 117.769 35.352C117.806 35.3484 117.844 35.352 117.88 35.3627C117.916 35.3734 117.95 35.3909 117.979 35.4143C118.037 35.4846 118.066 35.5733 118.062 35.6635C118.072 35.7563 118.047 35.8496 117.992 35.9252C117.962 35.9605 117.925 35.9893 117.884 36.0097C117.842 36.0301 117.796 36.0417 117.75 36.0436H117.616C117.444 36.0507 117.275 36.0919 117.12 36.1647C116.965 36.2375 116.826 36.3405 116.712 36.4673C116.492 36.7534 116.382 37.1063 116.401 37.4642V39.8068C116.406 39.9155 116.375 40.0228 116.312 40.1121C116.281 40.151 116.241 40.1824 116.196 40.204C116.151 40.2255 116.101 40.2368 116.051 40.2368Z" fill="white"/>
<path d="M121.803 40.2555C121.535 40.2595 121.269 40.1951 121.033 40.0685C120.81 39.9423 120.625 39.7606 120.496 39.5418C120.368 39.323 120.301 39.0748 120.302 38.8224C120.284 38.675 120.296 38.5256 120.338 38.3829C120.38 38.2402 120.45 38.107 120.545 37.9911C120.64 37.8752 120.757 37.7789 120.89 37.7077C121.023 37.6364 121.169 37.5918 121.32 37.5763C121.81 37.4796 122.309 37.4378 122.809 37.4517H123.197V37.9626H122.822C122.453 37.9555 122.085 37.9805 121.721 38.0374C121.512 38.0595 121.315 38.1468 121.161 38.2866C121.048 38.4262 120.992 38.6012 121.002 38.7788C120.997 39.0104 121.086 39.2343 121.25 39.4019C121.336 39.4887 121.44 39.5565 121.556 39.6006C121.671 39.6446 121.794 39.664 121.918 39.6573C122.135 39.6614 122.347 39.5957 122.523 39.4704C122.706 39.3433 122.849 39.1685 122.936 38.9657C123.042 38.7349 123.095 38.4837 123.089 38.2305V37.1277C123.112 36.8239 123.037 36.5207 122.873 36.2617C122.784 36.1664 122.674 36.0925 122.552 36.046C122.429 35.9995 122.297 35.9816 122.166 35.9938C121.962 35.9953 121.758 36.0246 121.562 36.081C121.339 36.1503 121.126 36.2443 120.925 36.3614C120.897 36.3835 120.864 36.3989 120.829 36.4065C120.793 36.414 120.757 36.4135 120.722 36.405C120.664 36.3898 120.614 36.3543 120.582 36.3053C120.548 36.2503 120.529 36.1884 120.524 36.1246C120.518 36.056 120.532 35.9871 120.563 35.9252C120.598 35.8606 120.651 35.8067 120.715 35.7695C120.947 35.6337 121.198 35.5309 121.46 35.4642C121.69 35.3993 121.927 35.3657 122.166 35.3645C122.478 35.3538 122.787 35.4225 123.064 35.5639C123.307 35.7054 123.491 35.9259 123.585 36.1869C123.71 36.5177 123.768 36.8688 123.757 37.2212V39.8505C123.765 39.9584 123.736 40.0657 123.674 40.1558C123.647 40.1907 123.611 40.2186 123.57 40.237C123.529 40.2554 123.484 40.2639 123.439 40.2617C123.392 40.2639 123.345 40.2555 123.302 40.2371C123.259 40.2188 123.221 40.1909 123.191 40.1558C123.127 40.0664 123.096 39.9591 123.102 39.8505V39.0717H123.184C123.143 39.296 123.052 39.5088 122.917 39.6947C122.793 39.8664 122.63 40.0073 122.44 40.1059C122.243 40.2043 122.025 40.2555 121.803 40.2555Z" fill="white"/>
<path d="M128.32 40.2368C128.224 40.2382 128.131 40.2049 128.059 40.1433C127.973 40.0649 127.91 39.9662 127.875 39.8567L126.385 35.9377C126.344 35.8524 126.329 35.7573 126.341 35.6636C126.353 35.6062 126.379 35.5527 126.418 35.508C126.456 35.4632 126.506 35.4287 126.562 35.4076C126.617 35.3865 126.678 35.3795 126.737 35.3872C126.796 35.3949 126.853 35.4171 126.901 35.4517C126.966 35.5201 127.012 35.6038 127.035 35.6947L128.447 39.5888H128.218L129.65 35.6947C129.677 35.6044 129.725 35.5213 129.79 35.4517C129.853 35.4032 129.932 35.3788 130.013 35.3832C130.052 35.38 130.091 35.3856 130.127 35.3997C130.164 35.4137 130.196 35.4358 130.223 35.4642C130.273 35.5172 130.305 35.5851 130.312 35.6573C130.317 35.7482 130.304 35.8392 130.274 35.9253L128.765 39.8754C128.74 39.9875 128.677 40.0882 128.587 40.162C128.51 40.2169 128.415 40.2433 128.32 40.2368Z" fill="white"/>
<path d="M134.773 40.2554C134.372 40.2668 133.976 40.1629 133.634 39.9564C133.309 39.7542 133.05 39.4642 132.889 39.1215C132.706 38.7112 132.617 38.2668 132.628 37.8193C132.619 37.3779 132.708 36.9398 132.889 36.5358C133.041 36.1922 133.285 35.8951 133.596 35.676C133.902 35.4646 134.271 35.3554 134.646 35.3645C134.908 35.359 135.167 35.4145 135.403 35.5265C135.628 35.6315 135.823 35.79 135.969 35.9875C136.136 36.2035 136.259 36.4489 136.332 36.7103C136.42 37.0249 136.462 37.3499 136.459 37.676C136.471 37.7161 136.472 37.7582 136.463 37.7989C136.454 37.8395 136.436 37.8776 136.409 37.9099C136.382 37.9421 136.348 37.9677 136.309 37.9845C136.27 38.0012 136.228 38.0087 136.186 38.0062H133.195V37.4891H136.027L135.887 37.6199C135.894 37.3177 135.849 37.0164 135.753 36.729C135.675 36.5091 135.537 36.3148 135.352 36.1682C135.165 36.041 134.943 35.9736 134.716 35.9751C134.448 35.9692 134.186 36.0502 133.971 36.2056C133.76 36.3656 133.601 36.582 133.513 36.8286C133.405 37.1308 133.353 37.4494 133.36 37.7695V37.8255C133.327 38.3075 133.462 38.7863 133.742 39.1838C133.873 39.3401 134.04 39.4639 134.229 39.5451C134.418 39.6263 134.624 39.6626 134.83 39.6511C135.027 39.6496 135.222 39.6202 135.409 39.5638C135.613 39.4974 135.805 39.3985 135.976 39.271C136.036 39.2194 136.112 39.1906 136.192 39.19C136.222 39.1897 136.252 39.1956 136.279 39.2074C136.307 39.2192 136.331 39.2367 136.351 39.2586C136.393 39.3016 136.422 39.3557 136.434 39.4143C136.452 39.4796 136.452 39.5484 136.434 39.6137C136.405 39.6869 136.354 39.7499 136.288 39.7944C136.087 39.9546 135.859 40.0771 135.613 40.1557C135.341 40.2362 135.057 40.2699 134.773 40.2554Z" fill="white"/>
<path d="M140.494 40.2554C140.312 40.2657 140.13 40.2319 139.965 40.1569C139.799 40.0819 139.655 39.9681 139.546 39.8255C139.301 39.4563 139.187 39.0184 139.221 38.5794V33.6448C139.213 33.5388 139.242 33.4331 139.304 33.3458C139.337 33.3108 139.377 33.2836 139.423 33.2663C139.468 33.249 139.516 33.2421 139.565 33.2461C139.613 33.2434 139.661 33.251 139.706 33.2682C139.751 33.2854 139.792 33.3118 139.826 33.3458C139.89 33.4323 139.922 33.538 139.915 33.6448V38.5358C139.896 38.8076 139.96 39.0787 140.099 39.3146C140.161 39.3996 140.243 39.468 140.339 39.5137C140.435 39.5594 140.54 39.581 140.647 39.5763H140.787H140.908C140.932 39.5714 140.958 39.5734 140.982 39.5823C141.005 39.5911 141.026 39.6063 141.041 39.6261C141.074 39.7008 141.087 39.7821 141.079 39.8629C141.084 39.9551 141.06 40.0465 141.009 40.1246C140.952 40.1871 140.872 40.227 140.787 40.2367H140.64L140.494 40.2554Z" fill="white"/>
<path d="M149.346 42C149.045 42.0013 148.745 41.9615 148.455 41.8816C148.172 41.8013 147.907 41.6703 147.672 41.4953C147.609 41.4592 147.562 41.4015 147.539 41.3333C147.52 41.2724 147.52 41.2073 147.539 41.1464C147.545 41.0837 147.572 41.0247 147.615 40.9782C147.65 40.9323 147.699 40.8993 147.755 40.8847C147.811 40.8647 147.872 40.8647 147.927 40.8847C148.145 41.0426 148.388 41.1647 148.646 41.2461C148.868 41.3072 149.097 41.3387 149.327 41.3395C149.499 41.3507 149.672 41.3234 149.832 41.2597C149.991 41.1961 150.134 41.0976 150.25 40.9719C150.481 40.6646 150.593 40.2873 150.568 39.9065V38.8411H150.651C150.581 39.192 150.388 39.5076 150.103 39.7321C149.828 39.9506 149.484 40.0675 149.13 40.0623C148.772 40.0713 148.422 39.9663 148.131 39.7632C147.843 39.5513 147.622 39.264 147.494 38.9346C147.333 38.5386 147.255 38.1147 147.265 37.6885C147.263 37.3665 147.305 37.0457 147.392 36.7352C147.469 36.4673 147.597 36.2159 147.768 35.9937C147.928 35.7963 148.13 35.6348 148.36 35.5202C148.604 35.4061 148.872 35.3485 149.142 35.352C149.498 35.3435 149.845 35.4583 150.122 35.676C150.399 35.8993 150.588 36.2098 150.657 36.5545L150.568 36.6729V35.7819C150.561 35.6751 150.593 35.5694 150.657 35.4828C150.689 35.449 150.729 35.4226 150.773 35.4054C150.817 35.3882 150.864 35.3806 150.912 35.3832C150.96 35.3792 151.009 35.3861 151.054 35.4034C151.099 35.4207 151.14 35.4478 151.173 35.4828C151.234 35.5702 151.264 35.6759 151.255 35.7819V39.8255C151.3 40.406 151.13 40.9829 150.778 41.4517C150.599 41.6449 150.376 41.7949 150.128 41.89C149.879 41.9851 149.612 42.0228 149.346 42ZM149.244 39.4205C149.494 39.426 149.739 39.354 149.944 39.2149C150.15 39.0515 150.306 38.8361 150.396 38.5919C150.506 38.2986 150.56 37.9882 150.555 37.676C150.579 37.2336 150.454 36.7959 150.199 36.4299C150.09 36.2827 149.946 36.1638 149.78 36.0835C149.614 36.0031 149.43 35.9638 149.244 35.9688C148.997 35.9624 148.756 36.037 148.557 36.1807C148.347 36.34 148.189 36.5568 148.105 36.8037C147.992 37.0917 147.938 37.3987 147.946 37.7071C147.923 38.1485 148.046 38.5855 148.296 38.9532C148.402 39.1018 148.545 39.2223 148.71 39.3039C148.876 39.3854 149.059 39.4255 149.244 39.4205Z" fill="white"/>
<path d="M155.774 40.2555C155.479 40.2663 155.188 40.195 154.933 40.0499C154.707 39.8966 154.534 39.6792 154.437 39.4268C154.315 39.0933 154.259 38.7403 154.272 38.3863V35.7819C154.26 35.6747 154.292 35.5673 154.361 35.4829C154.393 35.4484 154.432 35.4215 154.476 35.4042C154.52 35.3869 154.568 35.3797 154.615 35.3832C154.664 35.3797 154.712 35.3868 154.757 35.4041C154.802 35.4213 154.843 35.4482 154.876 35.4829C154.942 35.5687 154.974 35.675 154.965 35.7819V38.3738C154.942 38.699 155.022 39.0232 155.194 39.3022C155.28 39.4061 155.39 39.4881 155.516 39.5413C155.641 39.5944 155.777 39.6171 155.914 39.6075C156.081 39.6114 156.247 39.5762 156.397 39.5046C156.548 39.4331 156.679 39.3274 156.779 39.1963C157.018 38.8922 157.138 38.5141 157.116 38.1309V35.7819C157.11 35.6876 157.134 35.5937 157.186 35.514C157.221 35.4796 157.263 35.4529 157.309 35.4357C157.355 35.4185 157.404 35.4112 157.454 35.4143C157.501 35.4118 157.548 35.4194 157.592 35.4366C157.636 35.4538 157.676 35.4802 157.708 35.514C157.774 35.5999 157.806 35.7061 157.797 35.8131V39.8567C157.797 40.1309 157.683 40.2679 157.46 40.2679C157.412 40.2697 157.365 40.2612 157.321 40.2428C157.277 40.2245 157.237 40.1969 157.205 40.162C157.142 40.0727 157.111 39.9653 157.116 39.8567V38.9471L157.231 39.0841C157.139 39.4252 156.941 39.7299 156.664 39.9564C156.41 40.1512 156.096 40.2565 155.774 40.2555Z" fill="white"/>
<path d="M161.221 34.3178C161.158 34.3207 161.096 34.3106 161.038 34.288C160.98 34.2655 160.927 34.231 160.884 34.1869C160.801 34.0869 160.758 33.9606 160.763 33.8318C160.755 33.7026 160.798 33.5755 160.884 33.4767C160.928 33.4346 160.981 33.4019 161.039 33.3805C161.097 33.3591 161.159 33.3494 161.221 33.352C161.284 33.3485 161.347 33.3578 161.406 33.3792C161.465 33.4007 161.519 33.4338 161.565 33.4767C161.648 33.5764 161.689 33.7034 161.679 33.8318C161.686 33.9598 161.645 34.086 161.565 34.1869C161.52 34.2318 161.467 34.2668 161.407 34.2894C161.348 34.312 161.284 34.3217 161.221 34.3178ZM161.221 40.2181C161.172 40.2216 161.124 40.2132 161.079 40.1936C161.035 40.174 160.996 40.1439 160.966 40.1059C160.902 40.0122 160.871 39.9007 160.877 39.7882V35.8193C160.871 35.7087 160.902 35.5991 160.966 35.5078C160.998 35.4722 161.037 35.4441 161.081 35.4257C161.125 35.4073 161.173 35.3992 161.221 35.4019C161.27 35.4 161.318 35.4085 161.363 35.4268C161.408 35.4451 161.449 35.4727 161.482 35.5078C161.551 35.5971 161.585 35.7076 161.577 35.8193V39.7882C161.584 39.9018 161.551 40.0142 161.482 40.1059C161.451 40.144 161.411 40.1741 161.366 40.1936C161.32 40.2132 161.27 40.2216 161.221 40.2181Z" fill="white"/>
<path d="M166.223 40.2554C165.872 40.2626 165.528 40.1577 165.243 39.9564C164.955 39.7344 164.735 39.4391 164.607 39.1028C164.445 38.6895 164.367 38.2493 164.377 37.8068C164.367 37.3624 164.445 36.9202 164.607 36.5047C164.735 36.17 164.955 35.8767 165.243 35.6573C165.53 35.4606 165.873 35.3581 166.223 35.3645C166.573 35.3561 166.916 35.4686 167.19 35.6822C167.465 35.9043 167.657 36.2086 167.738 36.5483H167.642V33.6448C167.635 33.538 167.667 33.4323 167.731 33.3458C167.764 33.3108 167.805 33.2836 167.85 33.2663C167.895 33.249 167.944 33.2421 167.992 33.2461C168.039 33.2426 168.087 33.2498 168.131 33.2671C168.175 33.2843 168.215 33.3113 168.247 33.3458C168.313 33.4311 168.345 33.5378 168.336 33.6448V39.8131C168.343 39.921 168.314 40.0283 168.253 40.1184C168.22 40.1541 168.18 40.1822 168.135 40.2006C168.09 40.2189 168.041 40.227 167.992 40.2243C167.944 40.2261 167.897 40.2175 167.853 40.1992C167.809 40.1809 167.769 40.1533 167.738 40.1184C167.674 40.029 167.643 39.9217 167.648 39.8131V38.9096L167.744 39.0405C167.668 39.3871 167.475 39.6986 167.197 39.9252C166.922 40.1447 166.577 40.2618 166.223 40.2554ZM166.369 39.6324C166.615 39.6346 166.854 39.558 167.05 39.4143C167.258 39.2539 167.413 39.0372 167.496 38.7913C167.61 38.4755 167.664 38.1418 167.655 37.8068C167.686 37.3342 167.566 36.8638 167.311 36.461C167.206 36.3129 167.065 36.1927 166.9 36.1112C166.736 36.0296 166.554 35.9893 166.369 35.9937C166.122 35.9864 165.88 36.0611 165.682 36.2056C165.475 36.367 165.321 36.5833 165.237 36.8286C165.121 37.1463 165.067 37.4823 165.077 37.8193C165.045 38.2929 165.168 38.7642 165.427 39.1651C165.533 39.3129 165.674 39.4325 165.838 39.513C166.003 39.5936 166.185 39.6324 166.369 39.6261V39.6324Z" fill="white"/>
<path d="M173.287 40.2554C172.885 40.2668 172.489 40.1629 172.148 39.9564C171.822 39.7542 171.564 39.4642 171.403 39.1215C171.22 38.7112 171.131 38.2668 171.142 37.8193C171.132 37.3779 171.221 36.9398 171.403 36.5358C171.555 36.1922 171.799 35.8951 172.109 35.676C172.416 35.4646 172.784 35.3554 173.159 35.3645C173.419 35.3583 173.677 35.4139 173.91 35.5265C174.139 35.6295 174.336 35.7883 174.483 35.9875C174.65 36.2035 174.773 36.4489 174.846 36.7103C174.933 37.0249 174.976 37.3499 174.973 37.676C174.98 37.7167 174.976 37.7584 174.963 37.7976C174.95 37.8368 174.928 37.8724 174.898 37.9016C174.868 37.9307 174.832 37.9526 174.792 37.9654C174.752 37.9781 174.709 37.9815 174.668 37.9751H171.677V37.4579H174.509L174.369 37.5888C174.378 37.2859 174.33 36.984 174.229 36.6978C174.155 36.4777 174.018 36.2831 173.834 36.1371C173.647 36.0099 173.425 35.9424 173.198 35.9439C172.93 35.938 172.668 36.0191 172.453 36.1744C172.242 36.3344 172.083 36.5508 171.995 36.7975C171.887 37.0997 171.835 37.4183 171.842 37.7383V37.7944C171.809 38.2764 171.944 38.7551 172.224 39.1526C172.355 39.3089 172.522 39.4327 172.711 39.5139C172.9 39.5951 173.106 39.6314 173.312 39.6199C173.509 39.6184 173.704 39.589 173.891 39.5327C174.095 39.4663 174.287 39.3673 174.458 39.2399C174.518 39.1882 174.594 39.1595 174.674 39.1589C174.704 39.1585 174.734 39.1644 174.761 39.1763C174.789 39.1881 174.813 39.2055 174.833 39.2274C174.875 39.2705 174.904 39.3246 174.916 39.3832C174.934 39.4484 174.934 39.5173 174.916 39.5825C174.887 39.6558 174.836 39.7187 174.77 39.7632C174.569 39.9234 174.341 40.0459 174.095 40.1246C173.835 40.2115 173.562 40.2557 173.287 40.2554Z" fill="white"/>
</g>
<defs>
<clipPath id="clip0_2001_78">
<rect width="224" height="42" fill="white"/>
</clipPath>
</defs>
</svg>
