<svg width="40" height="40" viewBox="0 0 40 40" fill="none" xmlns="http://www.w3.org/2000/svg">
<g clip-path="url(#clip0_2001_150)">
<path d="M17.7205 23.3119L23.4839 19.9571L17.7205 16.6882V23.3119Z" fill="white"/>
<path d="M19.957 0C8.94624 0 0 8.94624 0 19.957C0 30.9677 8.94624 39.914 19.957 39.914C30.9677 39.914 39.914 30.9677 39.914 19.957C39.914 8.94624 31.0538 0 19.957 0ZM30.6237 25.3763C30.3656 26.3226 29.5914 27.0968 28.6452 27.3548C26.9247 27.7849 19.957 27.7849 19.957 27.7849C19.957 27.7849 12.9892 27.7849 11.2688 27.3548C10.3226 27.0968 9.54839 26.3226 9.29032 25.3763C8.86022 23.6559 8.86022 20.043 8.86022 20.043C8.86022 20.043 8.86022 16.4301 9.29032 14.7097C9.54839 13.7634 10.3226 12.9892 11.2688 12.7312C12.9892 12.3011 19.957 12.3011 19.957 12.3011C19.957 12.3011 26.9247 12.3011 28.6452 12.7312C29.5914 12.9892 30.3656 13.7634 30.6237 14.7097C31.0538 16.4301 31.0538 20.043 31.0538 20.043C31.0538 20.043 31.0538 23.6559 30.6237 25.3763Z" fill="white"/>
</g>
<defs>
<clipPath id="clip0_2001_150">
<rect width="40" height="40" fill="white"/>
</clipPath>
</defs>
</svg>
