<svg width="40" height="40" fill="none" xmlns="http://www.w3.org/2000/svg"><path d="M19.957 0C8.947 0 0 8.946 0 19.957c0 11.01 8.946 19.957 19.957 19.957 11.01 0 19.957-8.946 19.957-19.957C40 8.947 31.054 0 19.957 0zm9.204 26.409c-.344 1.118-2.322 2.15-3.183 2.236-.86.086-.86.688-5.677-1.118-4.731-1.893-7.742-6.71-8-7.054-.172-.258-1.204-1.548-1.634-3.269a4.87 4.87 0 01-.258-1.548c0-2.323 1.204-3.44 1.634-3.871.43-.43.946-.602 1.29-.602.344 0 .602.086.86.086.259 0 .689-.172 1.033.774.43.946 1.376 3.269 1.462 3.44.086.259.172.517 0 .775-.086.258-.172.344-.258.516-.086.086-.086.172-.172.258-.258.258-.516.602-.688.774-.258.258-.516.517-.172.947.258.43 1.204 1.978 2.58 3.183 1.807 1.634 3.27 2.064 3.785 2.322.517.258.775.172 1.033-.086.258-.344 1.204-1.376 1.462-1.806.344-.43.602-.43 1.032-.258.43.172 2.753 1.29 3.183 1.548.43.258.774.344.86.516.258.258.258 1.204-.172 2.237z" fill="#fff"/></svg>