<svg width="40" height="40" fill="none" xmlns="http://www.w3.org/2000/svg"><path d="M30.366 22.882A6.358 6.358 0 0024 17.204c-3.355 0-6.108 2.58-6.366 5.85v.516A6.351 6.351 0 0024 29.936c1.29 0 2.495-.345 3.527-1.033l2.409.774-.775-2.322c.774-1.032 1.205-2.323 1.205-3.7v-.773zm-8.86 1.72c-.603 0-1.033-.43-1.033-1.032v-.172c.086-.516.516-.946 1.032-.946.43 0 .775.258.947.602.086.172.086.258.086.43 0 .602-.43 1.118-1.033 1.118zm2.666 0c-.602 0-1.032-.43-1.032-1.032 0-.172 0-.258.086-.43.172-.344.516-.602.946-.602.602 0 1.032.43 1.032.946v.086c0 .516-.43 1.032-1.032 1.032zm2.667 0c-.602 0-1.033-.43-1.033-1.032 0-.172 0-.258.086-.43.172-.344.517-.602.947-.602.602 0 1.032.43 1.032.946v.086c0 .516-.43 1.032-1.032 1.032z" fill="#fff"/><path d="M24 16c.602 0 1.204.086 1.72.172-.86-3.527-3.957-6.193-7.828-6.193-4.129 0-7.57 3.182-8 7.14v.773c0 1.72.603 3.355 1.549 4.646l-1.032 2.924 3.096-.946a8.298 8.298 0 003.27 1.205c-.259-.775-.345-1.549-.345-2.323v-.172C16.516 19.269 19.871 16 24 16z" fill="#fff"/><path d="M19.957 0C8.947 0 0 8.946 0 19.957c0 11.01 8.946 19.957 19.957 19.957 11.01 0 19.957-8.946 19.957-19.957C39.914 8.947 31.054 0 19.957 0zm7.742 30.108a7.625 7.625 0 01-3.699.946c-2.753 0-5.161-1.463-6.452-3.613-1.548-.086-2.924-.43-4.215-1.118l-5.247 1.72 1.72-5.075c-.86-1.463-1.376-3.097-1.376-4.904v-.43c.258-4.989 4.387-9.032 9.549-9.032 4.817 0 8.86 3.613 9.462 8.258a7.654 7.654 0 014.215 6.366v.344c0 1.462-.43 2.753-1.118 3.87l1.376 4.044-4.215-1.377z" fill="#fff"/></svg>