<svg width="40" height="40" fill="none" xmlns="http://www.w3.org/2000/svg"><g clip-path="url(#clip0_2001_139)"><path d="M19.957 0C8.947 0 0 8.946 0 19.957c0 11.01 8.946 19.957 19.957 19.957 11.01 0 19.957-8.946 19.957-19.957C39.914 8.947 31.054 0 19.957 0zm4.99 12.99h-2.323c-.86 0-1.033.343-1.033 1.204v2.064h3.355l-.344 3.613h-3.01V30.71H17.29V19.957h-2.236v-3.699h2.236v-2.925c0-2.666 1.463-4.129 4.646-4.129h3.01v3.785z" fill="#fff"/></g><defs><clipPath id="clip0_2001_139"><path fill="#fff" d="M0 0h40v40H0z"/></clipPath></defs></svg>