<svg width="40" height="40" fill="none" xmlns="http://www.w3.org/2000/svg"><g clip-path="url(#clip0_2001_145)" fill="#fff"><path d="M27.527 14.28c-.172-.43-.344-.775-.688-1.119s-.688-.516-1.119-.688c-.344-.172-.86-.258-1.806-.344-1.032-.086-1.376-.086-3.957-.086-2.58 0-2.925 0-3.957.086-.946.086-1.462.172-1.806.344-.43.172-.775.344-1.119.688s-.516.688-.688 1.119c-.172.344-.258.86-.344 1.806v3.87c0 2.582 0 2.926.086 3.958.086.946.172 1.462.344 1.806.172.43.344.775.688 1.119s.688.516 1.119.688c.344.172.86.258 1.806.344 1.032.086 1.29.086 3.957.086 2.58 0 2.925 0 3.957-.086.946-.086 1.462-.172 1.806-.344.43-.172.775-.344 1.119-.688s.516-.688.688-1.119c.172-.344.258-.86.344-1.806.086-1.032.086-1.29.086-3.957 0-2.58 0-2.925-.086-3.957-.086-.86-.258-1.376-.43-1.72zm-7.57 10.666a4.993 4.993 0 01-4.99-4.99 4.993 4.993 0 014.99-4.988 4.993 4.993 0 014.99 4.989 4.993 4.993 0 01-4.99 4.99zM25.204 16C24.602 16 24 15.484 24 14.796c0-.602.516-1.205 1.204-1.205.602 0 1.205.517 1.205 1.205-.086.688-.603 1.204-1.205 1.204z"/><path d="M19.957 16.774a3.267 3.267 0 00-3.269 3.269 3.267 3.267 0 003.27 3.269 3.267 3.267 0 003.268-3.269 3.267 3.267 0 00-3.269-3.269z"/><path d="M19.957 0C8.947 0 0 8.946 0 19.957c0 11.01 8.946 19.957 19.957 19.957 11.01 0 19.957-8.946 19.957-19.957C40 8.947 31.054 0 19.957 0zm9.72 24c-.086 1.032-.172 1.72-.43 2.323-.258.602-.602 1.204-1.118 1.72-.516.516-1.118.86-1.72 1.118-.602.258-1.29.43-2.323.43-1.032.086-1.376.086-4.043.086-2.667 0-3.01 0-4.043-.086-1.032-.086-1.72-.172-2.323-.43-.602-.258-1.204-.602-1.72-1.118-.516-.516-.86-1.118-1.118-1.72-.258-.603-.43-1.29-.43-2.323-.086-1.032-.086-1.376-.086-4.043 0-2.667 0-3.01.086-4.043.086-1.032.172-1.72.43-2.323.258-.602.602-1.204 1.118-1.72.516-.516 1.118-.86 1.72-1.118.603-.258 1.29-.43 2.323-.43 1.032-.086 1.376-.086 4.043-.086 2.667 0 3.01 0 4.043.086 1.032.086 1.72.172 2.323.43.602.258 1.204.602 1.72 1.118.516.516.86 1.118 1.118 1.72.258.603.43 1.29.43 2.323.086 1.032.086 1.376.086 4.043-.086 2.667-.086 3.01-.086 4.043z"/></g><defs><clipPath id="clip0_2001_145"><path fill="#fff" d="M0 0h40v40H0z"/></clipPath></defs></svg>