<svg width="19" height="24" fill="none" xmlns="http://www.w3.org/2000/svg"><path d="M9.005 22.951v0h-.01c-.163.003-.433-.073-.815-.303-.371-.224-.798-.56-1.261-.998-.926-.874-1.953-2.108-2.913-3.508-.959-1.4-1.84-2.952-2.48-4.457C.883 12.172.5 10.744.5 9.58.5 4.814 4.336.999 9.005.999c4.668 0 8.505 3.864 8.505 8.581 0 1.159-.402 2.581-1.071 4.09-.666 1.502-1.58 3.05-2.561 4.448-.982 1.4-2.022 2.635-2.936 3.514-.457.44-.873.782-1.225 1.01-.37.24-.603.31-.712.31z" stroke="#fff" stroke-miterlimit="10" stroke-linecap="round" stroke-linejoin="round"/><path d="M11.425 10.229c0 1.353-1.088 2.444-2.42 2.444a2.432 2.432 0 01-2.42-2.444 2.432 2.432 0 012.42-2.444c1.332 0 2.42 1.09 2.42 2.444z" stroke="#fff" stroke-miterlimit="10" stroke-linecap="round" stroke-linejoin="round"/></svg>