<svg width="224" height="42" fill="none" xmlns="http://www.w3.org/2000/svg"><g clip-path="url(#clip0_2001_78)" fill="#fff"><path d="M19.677 22.498H7.675l-3.119 6.66H0L13.867 0 27.23 29.159h-4.614l-2.94-6.66zm-1.725-3.894L13.797 9.26l-4.36 9.345h8.515zM47.525 5.813l-3.43 1.988a5.808 5.808 0 00-1.833-2.131 4.362 4.362 0 00-2.342-.567 4.412 4.412 0 00-2.927.972 3.05 3.05 0 00-.865 1.077c-.2.42-.3.878-.293 1.34 0 1.338 1.016 2.416 3.048 3.234l2.794 1.121a12.01 12.01 0 014.995 3.296 7.373 7.373 0 011.579 4.773 8.226 8.226 0 01-.608 3.375 8.369 8.369 0 01-1.938 2.855 8.877 8.877 0 01-2.964 1.89 9.026 9.026 0 01-3.483.603 8.741 8.741 0 01-6.026-2.113 9.67 9.67 0 01-2.921-5.956l4.283-.922c.197 1.614.534 2.723 1.018 3.34.417.51.939.932 1.53 1.236a4.925 4.925 0 003.875.262 4.849 4.849 0 001.69-1.019 4.412 4.412 0 001.28-3.283 4.516 4.516 0 00-.23-1.47 3.717 3.717 0 00-.706-1.247 5.842 5.842 0 00-1.273-1.053c-.576-.36-1.183-.67-1.813-.928l-2.705-1.103c-3.818-1.586-5.727-3.908-5.727-6.966a6.48 6.48 0 01.608-2.853 6.615 6.615 0 011.804-2.318 8.826 8.826 0 016.007-2.1c3.233.03 5.757 1.585 7.573 4.667zm10.984 6.86L69.416 1.726h5.677L62.365 14.143 75.093 29.16h-5.657L59.38 16.953l-.872.854v11.352h-4.232V1.745h4.232v10.928zM91.314 13.8h14.459c0 1.459-.062 2.781-.185 3.97a14.087 14.087 0 01-.744 3.314 13.247 13.247 0 01-2.119 3.8 12.335 12.335 0 01-3.144 2.767 15.024 15.024 0 01-3.958 1.695 17.398 17.398 0 01-4.538.58 16.212 16.212 0 01-5.963-1.054 13.52 13.52 0 01-4.626-2.965 13.318 13.318 0 01-3.01-4.586 15.707 15.707 0 01-1.082-5.92 15.823 15.823 0 011.063-5.875 12.812 12.812 0 013.01-4.542 13.695 13.695 0 014.703-2.947A16.979 16.979 0 0191.314.978c2.688-.05 5.342.594 7.694 1.87a12.984 12.984 0 015.238 5.75l-6.88 2.766A6.929 6.929 0 0094.821 8.1a6.42 6.42 0 00-3.513-.985 7.212 7.212 0 00-2.978.623 6.446 6.446 0 00-2.285 1.707 8.26 8.26 0 00-1.489 2.68 10.73 10.73 0 00-.534 3.489 10.767 10.767 0 00.464 3.24 7.14 7.14 0 001.425 2.591 6.304 6.304 0 002.304 1.695 7.939 7.939 0 003.182.623c.7.001 1.4-.078 2.081-.237a5.495 5.495 0 001.807-.766 4.4 4.4 0 001.318-1.364c.373-.64.61-1.349.693-2.081h-5.982V13.8zm35.383-5.077a8.895 8.895 0 00-2.373-1.396 6.426 6.426 0 00-2.311-.455 3.808 3.808 0 00-2.303.623 2.06 2.06 0 00-.664.745 2.006 2.006 0 00-.227.963c-.017.442.143.873.445 1.202.333.343.731.62 1.171.816a10.04 10.04 0 001.636.623c.636.168 1.209.35 1.801.542 2.38.781 4.121 1.82 5.224 3.116a7.574 7.574 0 011.655 5.077 9.685 9.685 0 01-.725 3.82 7.969 7.969 0 01-2.12 2.928 9.78 9.78 0 01-3.417 1.87 14.547 14.547 0 01-4.595.71 17.155 17.155 0 01-9.851-3.116l3.125-5.75a12.462 12.462 0 003.233 2.105 7.926 7.926 0 003.182.692 3.83 3.83 0 002.66-.797 2.48 2.48 0 00.803-1.344 2.442 2.442 0 00-.167-1.547 2.404 2.404 0 00-.745-.842 6.095 6.095 0 00-1.355-.71 47.465 47.465 0 00-2.03-.729 47.828 47.828 0 01-2.768-.96 8.965 8.965 0 01-2.419-1.401 6.5 6.5 0 01-1.705-2.206 7.653 7.653 0 01-.637-3.364 9.553 9.553 0 01.688-3.695 8.173 8.173 0 011.909-2.835 8.628 8.628 0 013.048-1.838 11.64 11.64 0 014.048-.617 18.17 18.17 0 014.352.567 19.33 19.33 0 014.347 1.658l-2.915 5.545zm16.845 4.317l8.91-11.32h8.992l-11.137 12.99 12.155 14.449h-9.444l-9.476-11.9v11.9h-7.286V1.745h7.286V13.04zm34.734 1.832h11.576v.91a18.584 18.584 0 01-.738 5.47 11.63 11.63 0 01-2.457 4.125 12.668 12.668 0 01-4.47 3.242 12.92 12.92 0 01-5.457 1.057 13.916 13.916 0 01-5.478-1.036 13.665 13.665 0 01-4.596-3.095 13.768 13.768 0 01-3.144-4.592 13.54 13.54 0 01-1.05-5.433 13.494 13.494 0 011.055-5.513 13.751 13.751 0 013.215-4.643 14.85 14.85 0 017.814-3.97 15.024 15.024 0 018.732 1.098 17.678 17.678 0 015.358 4.268l-3.016 2.823c-2.3-3-5.1-4.497-8.4-4.493a10.228 10.228 0 00-4.073.731 10.051 10.051 0 00-3.424 2.279 10.013 10.013 0 00-2.276 3.395 9.831 9.831 0 00-.715 4 9.534 9.534 0 00.812 4.143 9.726 9.726 0 002.529 3.415 10.102 10.102 0 006.803 2.754 8.59 8.59 0 005.613-2.056 7.407 7.407 0 001.897-2.22 7.264 7.264 0 00.877-2.765h-7l.013-3.894zm16.457.448a13.209 13.209 0 011.096-5.43 13.451 13.451 0 013.238-4.538 14.305 14.305 0 014.758-3.118 14.556 14.556 0 015.627-1.038 14.266 14.266 0 015.58 1.055 14.03 14.03 0 014.692 3.138 13.703 13.703 0 013.212 4.608 13.46 13.46 0 011.07 5.48 13.226 13.226 0 01-1.076 5.482 13.479 13.479 0 01-3.251 4.586 14.974 14.974 0 01-10.016 4.133 15.004 15.004 0 01-10.202-3.672c-3.152-2.733-4.728-6.295-4.728-10.685zm4.264.05a9.737 9.737 0 00.746 4.064 9.93 9.93 0 002.372 3.413c.965.938 2.108 1.68 3.366 2.185a10.543 10.543 0 007.922-.03 10.369 10.369 0 003.349-2.21 10.097 10.097 0 002.286-3.373 9.923 9.923 0 00.749-3.98 9.838 9.838 0 00-.754-3.976 10.028 10.028 0 00-2.294-3.363 9.888 9.888 0 00-3.362-2.26 10.062 10.062 0 00-4.007-.737 10.171 10.171 0 00-4.015.742 9.995 9.995 0 00-3.374 2.255 9.899 9.899 0 00-2.272 3.33 9.707 9.707 0 00-.738 3.94h.026zM52.081 40.237a.523.523 0 01-.502-.368l-1.477-3.931a.611.611 0 01-.038-.293.289.289 0 01.127-.193.433.433 0 01.249-.069.427.427 0 01.242.069c.076.065.13.152.152.249l1.387 3.888h-.235l1.426-3.888a.523.523 0 01.171-.243.472.472 0 01.274-.075.413.413 0 01.267.081.455.455 0 01.172.237l1.394 3.888h-.223l1.407-3.907a.51.51 0 01.165-.236.433.433 0 01.242-.063.337.337 0 01.242.081.286.286 0 01.095.2.612.612 0 01-.05.274l-1.477 3.937a.624.624 0 01-.204.275.524.524 0 01-.598 0 .624.624 0 01-.204-.275l-1.463-3.944h.426l-1.457 3.944a.622.622 0 01-.198.275.523.523 0 01-.312.087zm10.799.018a2.733 2.733 0 01-1.316-.299 2.091 2.091 0 01-.853-.835 2.689 2.689 0 01-.3-1.302 2.58 2.58 0 01.3-1.283 2.17 2.17 0 01.835-.872 2.232 2.232 0 011.182-.3c.3-.006.596.049.872.163.246.102.464.26.636.46.188.212.33.457.42.723.099.313.146.639.14.966a.28.28 0 01-.089.224.388.388 0 01-.254.075h-3.424v-.517h3.246l-.16.13a2.196 2.196 0 00-.159-.89 1.251 1.251 0 00-.458-.56 1.437 1.437 0 00-.757-.194 1.571 1.571 0 00-.86.23 1.416 1.416 0 00-.534.623 2.367 2.367 0 00-.178.941v.056c-.033.492.127.978.446 1.359a1.657 1.657 0 001.273.467c.214-.004.428-.033.636-.087a2.31 2.31 0 00.636-.293.432.432 0 01.255-.081.245.245 0 01.178.068.26.26 0 01.095.156.28.28 0 010 .2.39.39 0 01-.172.18 2.531 2.531 0 01-.776.362c-.28.08-.568.125-.86.13zm6.594 0a1.395 1.395 0 01-1.095-.43 1.793 1.793 0 01-.375-1.246v-4.934a.397.397 0 01.102-.3.382.382 0 01.292-.099.416.416 0 01.3.1.38.38 0 01.108.299v4.89c-.024.277.053.553.216.78a.75.75 0 00.636.261h.3a.17.17 0 01.152.05c.036.074.05.156.045.237a.405.405 0 01-.083.262.438.438 0 01-.255.112h-.171l-.172.018zm4.983 0a1.395 1.395 0 01-1.095-.43 1.793 1.793 0 01-.375-1.246v-4.934a.397.397 0 01.102-.3.382.382 0 01.292-.099.416.416 0 01.3.1.402.402 0 01.108.299v4.89c-.024.277.053.553.216.78a.749.749 0 00.636.261h.293a.156.156 0 01.153.05.41.41 0 01.006.25.405.405 0 01-.083.261.436.436 0 01-.254.112h-.172l-.127.006zm3.856-.018a.383.383 0 01-.293-.106.423.423 0 01-.101-.306v-4.043a.395.395 0 01.101-.3.37.37 0 01.287-.099.408.408 0 01.293.1.403.403 0 01.101.299v.835l-.108-.119c.12-.35.36-.65.681-.847a2.02 2.02 0 011.082-.287c.33-.011.66.06.955.206.258.137.46.357.572.623.138.33.203.684.191 1.04v2.599a.424.424 0 01-.108.305.395.395 0 01-.293.106.414.414 0 01-.299-.106.425.425 0 01-.108-.305v-2.555a1.435 1.435 0 00-.261-.965 1.021 1.021 0 00-.834-.306 1.414 1.414 0 00-1.056.399 1.483 1.483 0 00-.395 1.078v2.343c0 .274-.133.41-.407.41zm9.431.018a2.733 2.733 0 01-1.317-.299 2.091 2.091 0 01-.853-.835 2.687 2.687 0 01-.299-1.302 2.645 2.645 0 01.293-1.283c.19-.362.481-.664.84-.871a2.244 2.244 0 011.184-.3c.296-.01.59.04.865.149.245.104.463.262.637.461.185.212.326.457.413.723.1.312.15.638.146.965a.283.283 0 01-.089.225.394.394 0 01-.26.075h-3.392v-.517h3.264l-.159.13a2.194 2.194 0 00-.159-.89 1.251 1.251 0 00-.458-.561 1.448 1.448 0 00-.764-.194 1.532 1.532 0 00-.853.231 1.416 1.416 0 00-.534.623 2.368 2.368 0 00-.178.94v.057c-.036.492.123.979.445 1.358a1.642 1.642 0 001.273.467c.226 0 .45-.03.668-.087.226-.065.441-.164.637-.293a.433.433 0 01.254-.08.252.252 0 01.178.068.26.26 0 01.096.156.282.282 0 010 .2.421.421 0 01-.172.18 2.608 2.608 0 01-.776.361c-.302.092-.615.14-.93.143zm6.746 0a4 4 0 01-.891-.105 2.547 2.547 0 01-.84-.368.37.37 0 01-.14-.162.384.384 0 01.083-.343.25.25 0 01.159-.087.402.402 0 01.21.044c.233.145.486.256.75.33.236.056.478.086.72.087.298.02.596-.049.853-.2a.658.658 0 00.241-.79.537.537 0 00-.146-.194 1.287 1.287 0 00-.592-.249l-.929-.212a1.785 1.785 0 01-.929-.436 1.139 1.139 0 01-.3-.81 1.227 1.227 0 01.23-.747 1.53 1.53 0 01.636-.493 2.61 2.61 0 01.993-.174c.28-.001.558.036.828.112.256.073.496.193.706.355.061.035.108.09.133.156.02.06.02.126 0 .187a.36.36 0 01-.095.156.27.27 0 01-.165.074.303.303 0 01-.21-.062 2.322 2.322 0 00-.637-.287c-.195-.06-.4-.092-.604-.093a1.404 1.404 0 00-.847.218.677.677 0 00-.243.803c.03.077.076.147.135.206.156.134.348.22.554.25l.903.187c.356.056.69.204.968.43a1.05 1.05 0 01.324.803c.005.2-.04.396-.132.573-.093.178-.229.33-.396.443-.39.265-.855.404-1.33.398zm6.796 0a4.014 4.014 0 01-.897-.105 2.523 2.523 0 01-.84-.368.418.418 0 01-.14-.162.384.384 0 01.083-.343.25.25 0 01.159-.087.402.402 0 01.21.044c.233.145.486.256.751.33.235.056.477.086.719.087.298.02.596-.049.853-.2a.642.642 0 00.286-.555.521.521 0 00-.191-.429 1.286 1.286 0 00-.592-.249l-.929-.212a1.813 1.813 0 01-.929-.436 1.138 1.138 0 01-.299-.81 1.227 1.227 0 01.23-.747c.162-.218.382-.387.636-.493.315-.122.653-.181.992-.174.28-.001.559.036.828.112.256.073.496.193.706.355a.31.31 0 01.134.156.314.314 0 010 .187.362.362 0 01-.096.156.268.268 0 01-.165.074.302.302 0 01-.21-.062 2.316 2.316 0 00-.605-.287 2.065 2.065 0 00-.604-.093 1.407 1.407 0 00-.847.218.684.684 0 00-.214.246.652.652 0 00-.072.315.607.607 0 00.178.448c.156.134.348.22.554.25l.903.187c.356.056.69.204.968.43a1.053 1.053 0 01.324.803 1.18 1.18 0 01-.528 1.016c-.397.27-.872.41-1.356.398zm11.354 0a1.564 1.564 0 01-.821-.199 1.186 1.186 0 01-.497-.58 2.4 2.4 0 01-.165-.94v-2.492h-.573a.279.279 0 01-.223-.081.29.29 0 01-.082-.23.291.291 0 01.082-.225.293.293 0 01.223-.075h.573v-1.096a.423.423 0 01.095-.3.344.344 0 01.261-.1.332.332 0 01.255.1.46.46 0 01.089.3v1.115h1.082a.313.313 0 01.222.075.322.322 0 01.083.224.332.332 0 01-.083.23.29.29 0 01-.222.081h-1.082v2.4a1.47 1.47 0 00.203.84.788.788 0 00.675.287c.095 0 .19-.015.28-.044a.648.648 0 01.191-.037.13.13 0 01.072.01c.023.01.042.025.055.046.042.072.06.154.051.237a.569.569 0 01-.038.212.243.243 0 01-.134.137c-.087.03-.176.055-.267.074a1.959 1.959 0 01-.305.032zm3.411-.018a.352.352 0 01-.268-.106.49.49 0 01-.089-.306v-4.043a.459.459 0 01.089-.3.304.304 0 01.249-.099.329.329 0 01.254.1.453.453 0 01.089.299v.785h-.089c.072-.344.258-.655.528-.885.272-.21.608-.327.955-.33a.292.292 0 01.21.062c.058.07.087.16.083.25a.376.376 0 01-.07.261.342.342 0 01-.242.119h-.134a1.293 1.293 0 00-.904.423c-.22.286-.33.64-.311.997v2.343a.49.49 0 01-.089.305.332.332 0 01-.261.125zm5.752.018a1.582 1.582 0 01-.77-.187 1.454 1.454 0 01-.537-.526 1.413 1.413 0 01-.194-.72 1.088 1.088 0 01.243-.83 1.144 1.144 0 01.775-.416c.49-.096.989-.138 1.489-.124h.388v.51h-.375a6.336 6.336 0 00-1.101.075.988.988 0 00-.56.25.717.717 0 00-.159.492.864.864 0 00.916.878 1.01 1.01 0 00.605-.187c.183-.127.326-.301.413-.504.106-.231.159-.482.153-.736v-1.102a1.417 1.417 0 00-.216-.866.857.857 0 00-.707-.268c-.204.001-.408.03-.604.087a3.12 3.12 0 00-.637.28.236.236 0 01-.343-.056.402.402 0 01-.019-.38.403.403 0 01.152-.155c.232-.136.483-.24.745-.306.23-.065.467-.098.706-.1.312-.01.621.059.898.2.243.141.427.362.521.623.125.33.183.682.172 1.034v2.63a.476.476 0 01-.083.305.286.286 0 01-.235.106.312.312 0 01-.248-.106.478.478 0 01-.089-.306v-.778h.082a1.527 1.527 0 01-.267.623 1.361 1.361 0 01-.477.41c-.197.1-.415.15-.637.15zm6.517-.018a.393.393 0 01-.261-.094.659.659 0 01-.184-.286l-1.49-3.92a.489.489 0 01-.044-.273.351.351 0 01.221-.256.361.361 0 01.339.044.548.548 0 01.134.243l1.412 3.894h-.229l1.432-3.894a.614.614 0 01.14-.243.335.335 0 01.223-.069.255.255 0 01.21.081.33.33 0 01.089.193.698.698 0 01-.038.268l-1.509 3.95a.517.517 0 01-.178.287.413.413 0 01-.267.075zm6.453.018a2.09 2.09 0 01-1.139-.299 1.973 1.973 0 01-.745-.835 3.014 3.014 0 01-.261-1.302 2.99 2.99 0 01.261-1.283c.152-.344.396-.64.707-.86.306-.211.675-.32 1.05-.312.262-.005.521.05.757.163.225.105.42.263.566.46.167.216.29.462.363.723.088.315.13.64.127.966a.26.26 0 01-.15.308.271.271 0 01-.123.022h-2.991v-.517h2.832l-.14.13a2.62 2.62 0 00-.134-.89 1.246 1.246 0 00-.401-.56 1.118 1.118 0 00-.636-.194 1.226 1.226 0 00-.745.23c-.211.16-.37.377-.458.624a2.62 2.62 0 00-.153.94v.056a2.11 2.11 0 00.382 1.359 1.335 1.335 0 001.088.467 2.06 2.06 0 00.579-.087c.204-.067.396-.166.567-.293a.334.334 0 01.216-.081.213.213 0 01.159.069.313.313 0 01.083.155.375.375 0 010 .2.393.393 0 01-.146.18c-.201.16-.429.283-.675.362-.272.08-.556.114-.84.1zm5.721 0a1.126 1.126 0 01-.948-.43 1.976 1.976 0 01-.325-1.246v-4.934a.457.457 0 01.083-.3.315.315 0 01.261-.099.341.341 0 01.261.1.453.453 0 01.089.299v4.89a1.35 1.35 0 00.184.78.634.634 0 00.548.261h.261a.136.136 0 01.133.05.47.47 0 01.038.237.434.434 0 01-.07.262.356.356 0 01-.222.112h-.147l-.146.018zM149.346 42a3.302 3.302 0 01-.891-.118 2.413 2.413 0 01-.783-.387.295.295 0 01-.133-.349.289.289 0 01.076-.168.258.258 0 01.14-.093.254.254 0 01.172 0c.218.158.461.28.719.361a2.6 2.6 0 00.681.093 1.163 1.163 0 00.923-.367c.231-.307.343-.685.318-1.066v-1.065h.083a1.528 1.528 0 01-1.521 1.221 1.672 1.672 0 01-.999-.299 1.872 1.872 0 01-.637-.828 3.114 3.114 0 01-.229-1.247c-.002-.322.04-.642.127-.953a2.21 2.21 0 01.376-.741c.16-.198.362-.36.592-.474.244-.114.512-.172.782-.168.356-.008.703.106.98.324.277.223.466.534.535.878l-.089.119v-.891a.454.454 0 01.089-.3.32.32 0 01.255-.099.323.323 0 01.261.1.456.456 0 01.082.299v4.044a2.399 2.399 0 01-.477 1.626 1.731 1.731 0 01-.65.438 1.767 1.767 0 01-.782.11zm-.102-2.58a1.2 1.2 0 00.7-.205c.206-.164.362-.379.452-.623.11-.293.164-.604.159-.916a1.99 1.99 0 00-.356-1.246 1.138 1.138 0 00-.955-.461 1.123 1.123 0 00-.687.212c-.21.159-.368.376-.452.623a2.309 2.309 0 00-.159.903c-.023.441.1.879.35 1.246a1.123 1.123 0 00.948.467zm6.53.835a1.581 1.581 0 01-.841-.205 1.33 1.33 0 01-.496-.623 2.735 2.735 0 01-.165-1.04v-2.605a.401.401 0 01.089-.3.313.313 0 01.254-.099.328.328 0 01.261.1.431.431 0 01.089.299v2.592c-.023.325.057.65.229.928a.862.862 0 00.72.305 1.065 1.065 0 00.865-.41 1.58 1.58 0 00.337-1.066v-2.35a.439.439 0 01.07-.267.35.35 0 01.268-.1.33.33 0 01.254.1.431.431 0 01.089.3v4.043c0 .274-.114.41-.337.41a.327.327 0 01-.255-.105.49.49 0 01-.089-.305v-.91l.115.137a1.7 1.7 0 01-.567.872c-.254.195-.568.3-.89.3zm5.447-5.937a.446.446 0 01-.337-.131.524.524 0 01-.121-.355.493.493 0 01.121-.355.449.449 0 01.337-.125.467.467 0 01.344.125c.083.1.124.226.114.355a.526.526 0 01-.114.355.445.445 0 01-.344.13zm0 5.9a.3.3 0 01-.255-.112.514.514 0 01-.089-.318V35.82a.495.495 0 01.089-.311.321.321 0 01.255-.106.34.34 0 01.261.106c.069.09.103.2.095.311v3.97a.478.478 0 01-.095.317.307.307 0 01-.261.112zm5.002.037a1.641 1.641 0 01-.98-.299 1.958 1.958 0 01-.636-.853 3.343 3.343 0 01-.23-1.296 3.37 3.37 0 01.23-1.302c.128-.335.348-.628.636-.848a1.68 1.68 0 01.98-.292c.35-.009.693.104.967.317.275.222.467.527.548.866h-.096v-2.903a.453.453 0 01.089-.3.323.323 0 01.261-.099.317.317 0 01.255.1.43.43 0 01.089.299v6.168a.488.488 0 01-.083.305.331.331 0 01-.261.106.328.328 0 01-.254-.106.485.485 0 01-.09-.305v-.903l.096.13a1.58 1.58 0 01-.547.885c-.275.22-.62.337-.974.33zm.146-.623c.246.003.485-.074.681-.218a1.32 1.32 0 00.446-.623c.114-.316.168-.65.159-.984a2.24 2.24 0 00-.344-1.346 1.13 1.13 0 00-.942-.467 1.11 1.11 0 00-.687.212 1.34 1.34 0 00-.445.623c-.116.317-.17.653-.16.99-.032.474.091.945.35 1.346a1.105 1.105 0 00.942.461v.006zm6.918.623a2.085 2.085 0 01-1.139-.299 1.967 1.967 0 01-.745-.835 3.014 3.014 0 01-.261-1.302 2.96 2.96 0 01.261-1.283 2.09 2.09 0 01.706-.86c.307-.211.675-.32 1.05-.312.26-.006.518.05.751.163.229.102.426.261.573.46.167.216.29.462.363.723.087.315.13.64.127.966a.258.258 0 01-.075.226.27.27 0 01-.23.073h-2.991v-.517h2.832l-.14.13a2.458 2.458 0 00-.14-.89 1.207 1.207 0 00-.395-.56 1.118 1.118 0 00-.636-.194 1.227 1.227 0 00-.745.23c-.211.16-.37.377-.458.623-.108.303-.16.621-.153.941v.056a2.11 2.11 0 00.382 1.359 1.335 1.335 0 001.088.467c.197-.002.392-.031.579-.087a1.97 1.97 0 00.567-.293.334.334 0 01.216-.081.21.21 0 01.159.068.314.314 0 01.083.156.375.375 0 010 .2.393.393 0 01-.146.18c-.201.16-.429.283-.675.362a2.54 2.54 0 01-.808.13z"/></g><defs><clipPath id="clip0_2001_78"><path fill="#fff" d="M0 0h224v42H0z"/></clipPath></defs></svg>