<svg width="40" height="40" fill="none" xmlns="http://www.w3.org/2000/svg"><g clip-path="url(#clip0_2001_150)" fill="#fff"><path d="M17.72 23.312l5.764-3.355-5.764-3.269v6.624z"/><path d="M19.957 0C8.947 0 0 8.946 0 19.957c0 11.01 8.946 19.957 19.957 19.957 11.01 0 19.957-8.946 19.957-19.957C39.914 8.947 31.054 0 19.957 0zm10.667 25.376a2.864 2.864 0 01-1.979 1.979c-1.72.43-8.688.43-8.688.43s-6.968 0-8.688-.43a2.864 2.864 0 01-1.979-1.979c-.43-1.72-.43-5.333-.43-5.333s0-3.613.43-5.333a2.864 2.864 0 011.979-1.979c1.72-.43 8.688-.43 8.688-.43s6.968 0 8.688.43a2.864 2.864 0 011.979 1.979c.43 1.72.43 5.333.43 5.333s0 3.613-.43 5.333z"/></g><defs><clipPath id="clip0_2001_150"><path fill="#fff" d="M0 0h40v40H0z"/></clipPath></defs></svg>