<svg width="40" height="40" fill="none" xmlns="http://www.w3.org/2000/svg"><path d="M20.473 9.634c-5.075 0-9.204 3.871-9.72 8.689 0 .344-.086.602-.086.946 0 2.15.688 4.043 1.892 5.677l-1.204 3.613 3.699-1.204c1.548 1.032 3.355 1.634 5.333 1.634 5.333 0 9.72-4.3 9.72-9.634v-.774c-.258-4.99-4.473-8.947-9.634-8.947zm5.678 13.678c-.259.688-1.377 1.29-1.893 1.376-.516.086-.516.43-3.44-.688-2.84-1.118-4.732-4.043-4.818-4.215-.086-.172-.688-.946-1.032-1.979-.086-.344-.172-.602-.172-.946 0-1.376.774-2.064 1.032-2.322a1.2 1.2 0 01.774-.345h.516c.172 0 .43-.085.602.43.259.603.775 1.98.86 2.065a.548.548 0 010 .516c-.085.172-.085.258-.171.344 0 .086-.086.086-.086.172-.172.172-.259.345-.43.517-.173.172-.259.258-.087.602.172.258.775 1.204 1.549 1.978 1.118.946 1.978 1.29 2.322 1.377.258.172.43.086.602-.086.173-.172.689-.86.86-1.119.173-.258.345-.258.603-.172.258.086 1.634.774 1.978.946.259.172.43.172.517.345.172 0 .172.516-.086 1.204z" fill="#fff"/><path d="M19.957 0C8.947 0 0 8.946 0 19.957c0 11.01 8.946 19.957 19.957 19.957 11.01 0 19.957-8.946 19.957-19.957C39.914 8.947 31.054 0 19.957 0zm.516 30.796c-2.064 0-3.957-.516-5.591-1.463l-6.366 2.065 2.065-6.194a11.593 11.593 0 01-1.635-5.935v-.516c.258-6.108 5.334-11.011 11.527-11.011 6.28 0 11.441 4.99 11.527 11.183v.258c.086 6.451-5.075 11.613-11.527 11.613z" fill="#fff"/></svg>